<svg width="12" height="12" viewBox="0 0 12 12" fill="none" xmlns="http://www.w3.org/2000/svg">
<g clip-path="url(#clip0_4436_2099)">
<g clip-path="url(#clip1_4436_2099)">
<path d="M7.66406 2.01562L9 1.5L9.49219 0.1875C9.51562 0.0703125 9.63281 0 9.75 0C9.84375 0 9.96094 0.0703125 9.98438 0.1875L10.5 1.5L11.8125 2.01562C11.9297 2.03906 12 2.15625 12 2.25C12 2.36719 11.9297 2.48438 11.8125 2.50781L10.5 3L9.98438 4.33594C9.96094 4.42969 9.84375 4.5 9.75 4.5C9.63281 4.5 9.51562 4.42969 9.49219 4.33594L9 3L7.66406 2.50781C7.57031 2.48438 7.5 2.36719 7.5 2.25C7.5 2.15625 7.57031 2.03906 7.66406 2.01562ZM0.210938 5.625L0.609375 5.46094L0.796875 5.36719H0.820312L2.88281 4.40625L3.84375 2.32031L3.9375 2.13281L4.125 1.73438C4.17188 1.59375 4.3125 1.5 4.45312 1.5C4.59375 1.5 4.73438 1.59375 4.80469 1.73438L4.99219 2.13281L5.0625 2.32031L5.08594 2.34375L6.02344 4.40625L8.10938 5.36719L8.29688 5.46094L8.69531 5.64844C8.83594 5.69531 8.92969 5.83594 8.92969 5.97656C8.92969 6.11719 8.83594 6.25781 8.69531 6.32812L8.29688 6.49219L8.10938 6.58594L6.02344 7.54688L5.0625 9.60938V9.63281L4.96875 9.82031L4.80469 10.2188C4.73438 10.3594 4.59375 10.4531 4.45312 10.4531C4.3125 10.4531 4.17188 10.3594 4.125 10.2188L3.9375 9.82031L3.84375 9.63281V9.60938L2.88281 7.54688L0.820312 6.58594H0.796875L0.609375 6.49219L0.210938 6.32812C0.0703125 6.25781 0 6.11719 0 5.97656C0 5.83594 0.0703125 5.69531 0.210938 5.625ZM2.15625 5.97656L3.35156 6.53906C3.58594 6.63281 3.79688 6.84375 3.91406 7.07812L4.45312 8.27344L5.01562 7.07812C5.13281 6.84375 5.32031 6.63281 5.55469 6.53906L6.75 5.97656L5.55469 5.41406C5.32031 5.32031 5.13281 5.10938 5.01562 4.875L4.45312 3.67969L3.91406 4.875C3.79688 5.10938 3.58594 5.32031 3.35156 5.41406L2.15625 5.97656ZM9 9L9.49219 7.6875C9.51562 7.57031 9.63281 7.5 9.75 7.5C9.84375 7.5 9.96094 7.57031 9.98438 7.6875L10.5 9L11.8125 9.51562C11.9297 9.53906 12 9.65625 12 9.75C12 9.86719 11.9297 9.98438 11.8125 10.0078L10.5 10.5L9.98438 11.8359C9.96094 11.9297 9.84375 12 9.75 12C9.63281 12 9.51562 11.9297 9.49219 11.8359L9 10.5L7.66406 10.0078C7.57031 9.98438 7.5 9.86719 7.5 9.75C7.5 9.65625 7.57031 9.53906 7.66406 9.51562L9 9Z" fill="#666666"/>
</g>
</g>
<defs>
<clipPath id="clip0_4436_2099">
<rect width="12" height="12" fill="white"/>
</clipPath>
<clipPath id="clip1_4436_2099">
<rect width="12" height="12" fill="white"/>
</clipPath>
</defs>
</svg>
