<svg width="16" height="16" viewBox="0 0 16 16" fill="none" xmlns="http://www.w3.org/2000/svg">
<rect x="6" width="10" height="6" rx="2" fill="#5959EB"/>
<path d="M13.5275 4.10742V1.85156C13.5275 1.73438 13.5542 1.64648 13.6075 1.58789C13.6609 1.5293 13.7299 1.5 13.8146 1.5C13.9018 1.5 13.9721 1.5293 14.0255 1.58789C14.0802 1.64518 14.1075 1.73307 14.1075 1.85156V4.10742C14.1075 4.22591 14.0802 4.31445 14.0255 4.37305C13.9721 4.43164 13.9018 4.46094 13.8146 4.46094C13.7312 4.46094 13.6622 4.43164 13.6075 4.37305C13.5542 4.31315 13.5275 4.22461 13.5275 4.10742Z" fill="white"/>
<path d="M12.5371 4.08789L12.4004 3.72852H11.2363L11.0996 4.0957C11.0462 4.23893 11.0007 4.33594 10.9629 4.38672C10.9251 4.4362 10.8633 4.46094 10.7773 4.46094C10.7044 4.46094 10.64 4.43424 10.584 4.38086C10.528 4.32747 10.5 4.26693 10.5 4.19922C10.5 4.16016 10.5065 4.11979 10.5195 4.07812C10.5326 4.03646 10.554 3.97852 10.584 3.9043L11.3164 2.04492C11.3372 1.99154 11.362 1.92773 11.3906 1.85352C11.4206 1.77799 11.4518 1.71549 11.4844 1.66602C11.5182 1.61654 11.5618 1.57682 11.6152 1.54688C11.6699 1.51562 11.737 1.5 11.8164 1.5C11.8971 1.5 11.9642 1.51562 12.0176 1.54688C12.0723 1.57682 12.1159 1.61589 12.1484 1.66406C12.1823 1.71224 12.2103 1.76432 12.2324 1.82031C12.2559 1.875 12.2852 1.94857 12.3203 2.04102L13.0684 3.88867C13.127 4.0293 13.1562 4.13151 13.1562 4.19531C13.1562 4.26172 13.1283 4.32292 13.0723 4.37891C13.0176 4.43359 12.9512 4.46094 12.873 4.46094C12.8275 4.46094 12.7884 4.45247 12.7559 4.43555C12.7233 4.41992 12.696 4.39844 12.6738 4.37109C12.6517 4.34245 12.6276 4.29948 12.6016 4.24219C12.5768 4.18359 12.5553 4.13216 12.5371 4.08789ZM11.3887 3.29297H12.2441L11.8125 2.11133L11.3887 3.29297Z" fill="white"/>
<path d="M8.62305 1.64453L8.97461 2.40039L9.73047 2.75195C9.77734 2.77539 9.8125 2.82227 9.8125 2.875C9.8125 2.93359 9.77734 2.98047 9.73047 3.00391L8.97461 3.35547L8.62305 4.11133C8.59961 4.1582 8.55273 4.1875 8.5 4.1875C8.44141 4.1875 8.39453 4.1582 8.37109 4.11133L8.01953 3.35547L7.26367 3.00391C7.2168 2.98047 7.1875 2.93359 7.1875 2.875C7.1875 2.82227 7.2168 2.77539 7.26367 2.75195L8.01953 2.40039L8.37109 1.64453C8.39453 1.59766 8.44141 1.5625 8.5 1.5625C8.55273 1.5625 8.59961 1.59766 8.62305 1.64453Z" fill="white"/>
<path fill-rule="evenodd" clip-rule="evenodd" d="M5.17071 1C5.06015 1.31278 5 1.64936 5 2H3C2.44772 2 2 2.44772 2 3V13C2 13.5523 2.44772 14 3 14H13C13.5523 14 14 13.5523 14 13V7C14.3506 7 14.6872 6.93985 15 6.82929V13C15 14.1046 14.1046 15 13 15H3C1.89543 15 1 14.1046 1 13V3C1 1.89543 1.89543 1 3 1H5.17071Z" fill="#333333"/>
<mask id="path-6-outside-1_1358_45024" maskUnits="userSpaceOnUse" x="4" y="8" width="8" height="5" fill="black">
<rect fill="white" x="4" y="8" width="8" height="5"/>
<path d="M7.27734 8.78711L5.93945 10.125L7.27734 11.4727C7.4043 11.5898 7.4043 11.7949 7.27734 11.9121C7.16016 12.0391 6.95508 12.0391 6.83789 11.9121L5.27539 10.3496C5.14844 10.2324 5.14844 10.0273 5.27539 9.91016L6.83789 8.34766C6.95508 8.2207 7.16016 8.2207 7.27734 8.34766C7.4043 8.46484 7.4043 8.66992 7.27734 8.78711ZM8.71289 8.78711C8.58594 8.66992 8.58594 8.46484 8.71289 8.34766C8.83008 8.2207 9.03516 8.2207 9.15234 8.34766L10.7148 9.91016C10.8418 10.0273 10.8418 10.2324 10.7148 10.3496L9.15234 11.9121C9.03516 12.0391 8.83008 12.0391 8.71289 11.9121C8.58594 11.7949 8.58594 11.5898 8.71289 11.4727L10.0508 10.125L8.71289 8.78711Z"/>
</mask>
<path d="M7.27734 8.78711L5.93945 10.125L7.27734 11.4727C7.4043 11.5898 7.4043 11.7949 7.27734 11.9121C7.16016 12.0391 6.95508 12.0391 6.83789 11.9121L5.27539 10.3496C5.14844 10.2324 5.14844 10.0273 5.27539 9.91016L6.83789 8.34766C6.95508 8.2207 7.16016 8.2207 7.27734 8.34766C7.4043 8.46484 7.4043 8.66992 7.27734 8.78711ZM8.71289 8.78711C8.58594 8.66992 8.58594 8.46484 8.71289 8.34766C8.83008 8.2207 9.03516 8.2207 9.15234 8.34766L10.7148 9.91016C10.8418 10.0273 10.8418 10.2324 10.7148 10.3496L9.15234 11.9121C9.03516 12.0391 8.83008 12.0391 8.71289 11.9121C8.58594 11.7949 8.58594 11.5898 8.71289 11.4727L10.0508 10.125L8.71289 8.78711Z" fill="#333333"/>
<path d="M7.27734 8.78711L7.14158 8.64003L7.13592 8.64569L7.27734 8.78711ZM5.93945 10.125L5.79803 9.98358L5.65712 10.1245L5.79752 10.2659L5.93945 10.125ZM7.27734 11.4727L7.13527 11.6137L7.14169 11.6196L7.27734 11.4727ZM7.27734 11.9121L7.14169 11.7651L7.13581 11.7706L7.13038 11.7765L7.27734 11.9121ZM6.83789 11.9121L6.98497 11.7763L6.97931 11.7707L6.83789 11.9121ZM5.27539 10.3496L5.41693 10.2081L5.41105 10.2026L5.27539 10.3496ZM5.27539 9.91016L5.41116 10.0572L5.41681 10.0516L5.27539 9.91016ZM6.83789 8.34766L6.97943 8.48919L6.98485 8.48331L6.83789 8.34766ZM7.27734 8.34766L7.13038 8.48331L7.13581 8.48919L7.14169 8.49462L7.27734 8.34766ZM8.71289 8.78711L8.85443 8.64557L8.84855 8.64015L8.71289 8.78711ZM8.71289 8.34766L8.84855 8.49462L8.85443 8.48919L8.85985 8.48331L8.71289 8.34766ZM9.15234 8.34766L9.00527 8.48342L9.01092 8.48908L9.15234 8.34766ZM10.7148 9.91016L10.5733 10.0517L10.5792 10.0571L10.7148 9.91016ZM10.7148 10.3496L10.5791 10.2025L10.5734 10.2082L10.7148 10.3496ZM9.15234 11.9121L9.01081 11.7706L9.00538 11.7765L9.15234 11.9121ZM8.71289 11.9121L8.85985 11.7765L8.85443 11.7706L8.84855 11.7651L8.71289 11.9121ZM8.71289 11.4727L8.84868 11.6198L8.85483 11.6136L8.71289 11.4727ZM10.0508 10.125L10.1927 10.2659L10.3331 10.1245L10.1922 9.98358L10.0508 10.125ZM7.13592 8.64569L5.79803 9.98358L6.08087 10.2664L7.41877 8.92853L7.13592 8.64569ZM5.79752 10.2659L7.13541 11.6136L7.41928 11.3318L6.08139 9.98409L5.79752 10.2659ZM7.14169 11.6196C7.18285 11.6576 7.18285 11.7272 7.14169 11.7651L7.413 12.0591C7.62574 11.8627 7.62574 11.5221 7.413 11.3257L7.14169 11.6196ZM7.13038 11.7765C7.09239 11.8176 7.02285 11.8176 6.98485 11.7765L6.69093 12.0478C6.88731 12.2605 7.22792 12.2605 7.4243 12.0478L7.13038 11.7765ZM6.97931 11.7707L5.41681 10.2082L5.13397 10.491L6.69647 12.0535L6.97931 11.7707ZM5.41105 10.2026C5.36989 10.1647 5.36989 10.0951 5.41105 10.0571L5.13973 9.7632C4.92699 9.95958 4.92699 10.3002 5.13973 10.4966L5.41105 10.2026ZM5.41681 10.0516L6.97931 8.48908L6.69647 8.20623L5.13397 9.76873L5.41681 10.0516ZM6.98485 8.48331C7.02285 8.44215 7.09239 8.44215 7.13038 8.48331L7.4243 8.212C7.22792 7.99926 6.88731 7.99926 6.69093 8.212L6.98485 8.48331ZM7.14169 8.49462C7.18285 8.53261 7.18285 8.60215 7.14169 8.64015L7.413 8.93407C7.62574 8.73769 7.62574 8.39708 7.413 8.2007L7.14169 8.49462ZM8.84855 8.64015C8.80739 8.60215 8.80739 8.53261 8.84855 8.49462L8.57723 8.2007C8.36449 8.39708 8.36449 8.73769 8.57723 8.93407L8.84855 8.64015ZM8.85985 8.48331C8.89785 8.44215 8.96739 8.44215 9.00538 8.48331L9.2993 8.212C9.10292 7.99926 8.76231 7.99926 8.56593 8.212L8.85985 8.48331ZM9.01092 8.48908L10.5734 10.0516L10.8563 9.76873L9.29377 8.20623L9.01092 8.48908ZM10.5792 10.0571C10.6203 10.0951 10.6203 10.1647 10.5792 10.2026L10.8505 10.4966C11.0632 10.3002 11.0632 9.95958 10.8505 9.7632L10.5792 10.0571ZM10.5734 10.2082L9.01092 11.7707L9.29377 12.0535L10.8563 10.491L10.5734 10.2082ZM9.00538 11.7765C8.96739 11.8176 8.89785 11.8176 8.85985 11.7765L8.56593 12.0478C8.76231 12.2605 9.10292 12.2605 9.2993 12.0478L9.00538 11.7765ZM8.84855 11.7651C8.80739 11.7272 8.80739 11.6576 8.84855 11.6196L8.57723 11.3257C8.36449 11.5221 8.36449 11.8627 8.57723 12.0591L8.84855 11.7651ZM8.85483 11.6136L10.1927 10.2659L9.90885 9.98409L8.57096 11.3318L8.85483 11.6136ZM10.1922 9.98358L8.85431 8.64569L8.57147 8.92853L9.90936 10.2664L10.1922 9.98358Z" fill="#333333" mask="url(#path-6-outside-1_1358_45024)"/>
</svg>
