<svg width="16" height="16" viewBox="0 0 16 16" fill="none" xmlns="http://www.w3.org/2000/svg">
<mask id="path-1-outside-1_3982_1899" maskUnits="userSpaceOnUse" x="1.5" y="1.5" width="13" height="14" fill="black">
<rect fill="white" x="1.5" y="1.5" width="13" height="14"/>
<path d="M12.2656 3.10937C11.4727 2.31641 10.1875 2.31641 9.39453 3.10937L4.14453 8.35938C2.85938 9.64453 2.85938 11.6953 4.14453 12.9805C5.42969 14.2656 7.48047 14.2656 8.76562 12.9805L12.9219 8.82422C13.0859 8.66016 13.3867 8.66016 13.5508 8.82422C13.7148 8.98828 13.7148 9.28906 13.5508 9.45312L9.39453 13.6094C7.78125 15.2227 5.12891 15.2227 3.51563 13.6094C1.90234 11.9688 1.90234 9.34375 3.51563 7.73047L8.76562 2.48047C9.91406 1.35937 11.7461 1.35937 12.8945 2.48047C14.0156 3.62891 14.0156 5.46094 12.8945 6.60937L7.86328 11.6406C7.09766 12.4062 5.8125 12.3242 5.12891 11.4766C4.55469 10.7383 4.60938 9.69922 5.26562 9.04297L9.42188 4.88672C9.58594 4.72266 9.88672 4.72266 10.0508 4.88672C10.2148 5.05078 10.2148 5.35156 10.0508 5.51562L5.89453 9.67188C5.53906 10 5.51172 10.5469 5.8125 10.9297C6.16797 11.3672 6.85156 11.4219 7.23438 11.0117L12.2656 5.98047C13.0586 5.1875 13.0586 3.90234 12.2656 3.10937Z"/>
</mask>
<path d="M12.2656 3.10937C11.4727 2.31641 10.1875 2.31641 9.39453 3.10937L4.14453 8.35938C2.85938 9.64453 2.85938 11.6953 4.14453 12.9805C5.42969 14.2656 7.48047 14.2656 8.76562 12.9805L12.9219 8.82422C13.0859 8.66016 13.3867 8.66016 13.5508 8.82422C13.7148 8.98828 13.7148 9.28906 13.5508 9.45312L9.39453 13.6094C7.78125 15.2227 5.12891 15.2227 3.51563 13.6094C1.90234 11.9688 1.90234 9.34375 3.51563 7.73047L8.76562 2.48047C9.91406 1.35937 11.7461 1.35937 12.8945 2.48047C14.0156 3.62891 14.0156 5.46094 12.8945 6.60937L7.86328 11.6406C7.09766 12.4062 5.8125 12.3242 5.12891 11.4766C4.55469 10.7383 4.60938 9.69922 5.26562 9.04297L9.42188 4.88672C9.58594 4.72266 9.88672 4.72266 10.0508 4.88672C10.2148 5.05078 10.2148 5.35156 10.0508 5.51562L5.89453 9.67188C5.53906 10 5.51172 10.5469 5.8125 10.9297C6.16797 11.3672 6.85156 11.4219 7.23438 11.0117L12.2656 5.98047C13.0586 5.1875 13.0586 3.90234 12.2656 3.10937Z" fill="#AFAFAF"/>
<path d="M3.51563 13.6094L3.44432 13.6795L3.44491 13.6801L3.51563 13.6094ZM8.76562 2.48047L8.69577 2.40891L8.69491 2.40976L8.76562 2.48047ZM12.8945 2.48047L12.9661 2.41059L12.9644 2.40891L12.8945 2.48047ZM12.8945 6.60937L12.9652 6.68009L12.9661 6.67923L12.8945 6.60937ZM5.12891 11.4766L5.04996 11.538L5.05106 11.5393L5.12891 11.4766ZM5.89453 9.67188L5.96241 9.74541L5.96524 9.74259L5.89453 9.67188ZM5.8125 10.9297L5.73386 10.9915L5.73489 10.9927L5.8125 10.9297ZM7.23438 11.0117L7.16362 10.941L7.16127 10.9435L7.23438 11.0117ZM12.3363 3.03866C11.5043 2.20664 10.1558 2.20664 9.32382 3.03866L9.46524 3.18009C10.2192 2.42617 11.441 2.42617 12.1949 3.18009L12.3363 3.03866ZM9.32382 3.03866L4.07382 8.28866L4.21524 8.43009L9.46524 3.18009L9.32382 3.03866ZM4.07382 8.28866C2.74961 9.61287 2.74961 11.727 4.07382 13.0512L4.21524 12.9098C2.96914 11.6637 2.96914 9.67619 4.21524 8.43009L4.07382 8.28866ZM4.07382 13.0512C5.39803 14.3754 7.51213 14.3754 8.83634 13.0512L8.69491 12.9098C7.44881 14.1559 5.46135 14.1559 4.21524 12.9098L4.07382 13.0512ZM8.83634 13.0512L12.9926 8.89493L12.8512 8.75351L8.69491 12.9098L8.83634 13.0512ZM12.9926 8.89493C13.1176 8.76992 13.3551 8.76992 13.4801 8.89493L13.6215 8.75351C13.4184 8.55039 13.0543 8.55039 12.8512 8.75351L12.9926 8.89493ZM13.4801 8.89493C13.6051 9.01994 13.6051 9.2574 13.4801 9.38241L13.6215 9.52384C13.8246 9.32072 13.8246 8.95662 13.6215 8.75351L13.4801 8.89493ZM13.4801 9.38241L9.32382 13.5387L9.46524 13.6801L13.6215 9.52384L13.4801 9.38241ZM9.32382 13.5387C7.74959 15.1129 5.16056 15.1129 3.58634 13.5387L3.44491 13.6801C5.09725 15.3324 7.81291 15.3324 9.46524 13.6801L9.32382 13.5387ZM3.58693 13.5393C2.01158 11.9372 2.01243 9.37508 3.58634 7.80118L3.44491 7.65976C1.79226 9.31242 1.7931 12.0003 3.44432 13.6795L3.58693 13.5393ZM3.58634 7.80118L8.83634 2.55118L8.69491 2.40976L3.44491 7.65976L3.58634 7.80118ZM8.83548 2.55203C9.94507 1.46886 11.7151 1.46886 12.8247 2.55203L12.9644 2.40891C11.7771 1.24989 9.88306 1.24989 8.69577 2.40891L8.83548 2.55203ZM12.823 2.55032C13.9061 3.65991 13.9061 5.42993 12.823 6.53952L12.9661 6.67923C14.1251 5.49194 14.1251 3.5979 12.9661 2.41062L12.823 2.55032ZM12.8238 6.53866L7.79257 11.5699L7.93399 11.7113L12.9652 6.68009L12.8238 6.53866ZM7.79257 11.5699C7.07007 12.2924 5.854 12.2164 5.20675 11.4138L5.05106 11.5393C5.771 12.4321 7.12524 12.5201 7.93399 11.7113L7.79257 11.5699ZM5.20784 11.4152C4.66381 10.7157 4.71664 9.73338 5.33634 9.11368L5.19491 8.97226C4.50211 9.66506 4.44557 10.7609 5.04997 11.538L5.20784 11.4152ZM5.33634 9.11368L9.49259 4.95743L9.35116 4.81601L5.19491 8.97226L5.33634 9.11368ZM9.49259 4.95743C9.6176 4.83242 9.85506 4.83242 9.98007 4.95743L10.1215 4.81601C9.91838 4.61289 9.55428 4.61289 9.35116 4.81601L9.49259 4.95743ZM9.98007 4.95743C10.1051 5.08244 10.1051 5.3199 9.98007 5.44491L10.1215 5.58634C10.3246 5.38322 10.3246 5.01912 10.1215 4.81601L9.98007 4.95743ZM9.98007 5.44491L5.82382 9.60116L5.96524 9.74259L10.1215 5.58634L9.98007 5.44491ZM5.8267 9.59839C5.43038 9.96423 5.40304 10.5704 5.73387 10.9915L5.89113 10.8679C5.6204 10.5233 5.64774 10.0358 5.96236 9.74536L5.8267 9.59839ZM5.73489 10.9927C6.12466 11.4725 6.87909 11.5389 7.30748 11.08L7.16127 10.9435C6.82403 11.3048 6.21128 11.2619 5.89011 10.8666L5.73489 10.9927ZM7.30509 11.0824L12.3363 6.05118L12.1949 5.90976L7.16366 10.941L7.30509 11.0824ZM12.3363 6.05118C13.1684 5.21916 13.1684 3.87069 12.3363 3.03866L12.1949 3.18009C12.9488 3.934 12.9488 5.15584 12.1949 5.90976L12.3363 6.05118Z" fill="#AFAFAF" mask="url(#path-1-outside-1_3982_1899)"/>
</svg>
