<svg width="12" height="12" viewBox="0 0 12 12" fill="none" xmlns="http://www.w3.org/2000/svg">
<g clip-path="url(#clip0_3035_2136)">
<g clip-path="url(#clip1_3035_2136)">
<path d="M11 5.4375C11 7.68359 8.75391 9.5 6 9.5C5.25781 9.5 4.57422 9.38281 3.94922 9.16797C3.73438 9.32422 3.34375 9.55859 2.89453 9.75391C2.42578 9.96875 1.85938 10.125 1.3125 10.125C1.17578 10.125 1.05859 10.0664 1.01953 9.94922C0.960938 9.83203 1 9.69531 1.07812 9.59766C1.09766 9.59766 1.09766 9.57812 1.11719 9.55859C1.13672 9.53906 1.17578 9.5 1.21484 9.46094C1.29297 9.36328 1.39062 9.20703 1.50781 9.03125C1.70312 8.71875 1.87891 8.28906 1.91797 7.80078C1.33203 7.13672 1 6.33594 1 5.4375C1 3.21094 3.22656 1.375 6 1.375C8.75391 1.375 11 3.21094 11 5.4375Z" fill="#5959EB"/>
</g>
</g>
<defs>
<clipPath id="clip0_3035_2136">
<rect width="12" height="12" fill="white"/>
</clipPath>
<clipPath id="clip1_3035_2136">
<rect width="12" height="12" fill="white"/>
</clipPath>
</defs>
</svg>
