<svg width="70" height="62" viewBox="0 0 70 62" fill="none" xmlns="http://www.w3.org/2000/svg">
<g filter="url(#filter0_d_1638_8387)">
<path d="M10 16C10 11.5817 13.5817 8 18 8L52 8C56.4183 8 60 11.5818 60 16C60 22.5511 60 28.4489 60 35C60 39.4182 56.4183 43 52 43H51.5094V48.2907C51.5094 49.0554 50.686 49.5371 50.0194 49.1624L39.9695 43.5131C39.371 43.1767 38.696 43 38.0094 43H18C13.5817 43 10 39.4183 10 35V16Z" fill="url(#paint0_diamond_1638_8387)"/>
<path d="M51.5094 42.5H51.0094V43V48.2907C51.0094 48.6731 50.5977 48.9139 50.2644 48.7266L40.2145 43.0773C39.5412 42.6988 38.7818 42.5 38.0094 42.5H18C13.8579 42.5 10.5 39.1421 10.5 35V16C10.5 11.8579 13.8579 8.5 18 8.5L52 8.5C56.1421 8.5 59.5 11.8579 59.5 16V16.0384V16.0768V16.1151V16.1535V16.1918V16.2301V16.2684V16.3067V16.3449V16.3832V16.4214V16.4596V16.4978V16.536V16.5742V16.6123V16.6505V16.6886V16.7267V16.7648V16.8029V16.841V16.8791V16.9171V16.9552V16.9932V17.0312V17.0692V17.1072V17.1451V17.1831V17.221V17.259V17.2969V17.3348V17.3727V17.4106V17.4484V17.4863V17.5241V17.5619V17.5998V17.6376V17.6754V17.7131V17.7509V17.7887V17.8264V17.8641V17.9018V17.9395V17.9772V18.0149V18.0526V18.0902V18.1279V18.1655V18.2031V18.2408V18.2784V18.3159V18.3535V18.3911V18.4286V18.4662V18.5037V18.5412V18.5787V18.6162V18.6537V18.6912V18.7287V18.7661V18.8036V18.841V18.8784V18.9158V18.9532V18.9906V19.028V19.0654V19.1027V19.1401V19.1774V19.2148V19.2521V19.2894V19.3267V19.364V19.4013V19.4385V19.4758V19.513V19.5503V19.5875V19.6247V19.662V19.6992V19.7364V19.7735V19.8107V19.8479V19.885V19.9222V19.9593V19.9965V20.0336V20.0707V20.1078V20.1449V20.182V20.2191V20.2562V20.2932V20.3303V20.3673V20.4044V20.4414V20.4784V20.5154V20.5524V20.5894V20.6264V20.6634V20.7004V20.7374V20.7743V20.8113V20.8482V20.8852V20.9221V20.959V20.9959V21.0328V21.0697V21.1066V21.1435V21.1804V21.2173V21.2542V21.291V21.3279V21.3647V21.4016V21.4384V21.4752V21.512V21.5489V21.5857V21.6225V21.6593V21.6961V21.7328V21.7696V21.8064V21.8432V21.8799V21.9167V21.9534V21.9902V22.0269V22.0636V22.1004V22.1371V22.1738V22.2105V22.2472V22.2839V22.3206V22.3573V22.394V22.4307V22.4673V22.504V22.5407V22.5773V22.614V22.6506V22.6873V22.7239V22.7606V22.7972V22.8338V22.8704V22.9071V22.9437V22.9803V23.0169V23.0535V23.0901V23.1267V23.1633V23.1999V23.2365V23.2731V23.3096V23.3462V23.3828V23.4193V23.4559V23.4925V23.529V23.5656V23.6021V23.6387V23.6752V23.7118V23.7483V23.7848V23.8214V23.8579V23.8944V23.931V23.9675V24.004V24.0405V24.077V24.1136V24.1501V24.1866V24.2231V24.2596V24.2961V24.3326V24.3691V24.4056V24.4421V24.4786V24.5151V24.5516V24.5881V24.6246V24.661V24.6975V24.734V24.7705V24.807V24.8435V24.8799V24.9164V24.9529V24.9894V25.0259V25.0623V25.0988V25.1353V25.1718V25.2082V25.2447V25.2812V25.3176V25.3541V25.3906V25.4271V25.4635V25.5V25.5365V25.5729V25.6094V25.6459V25.6824V25.7188V25.7553V25.7918V25.8282V25.8647V25.9012V25.9377V25.9741V26.0106V26.0471V26.0836V26.1201V26.1565V26.193V26.2295V26.266V26.3025V26.339V26.3754V26.4119V26.4484V26.4849V26.5214V26.5579V26.5944V26.6309V26.6674V26.7039V26.7404V26.7769V26.8134V26.8499V26.8864V26.923V26.9595V26.996V27.0325V27.069V27.1056V27.1421V27.1786V27.2152V27.2517V27.2882V27.3248V27.3613V27.3979V27.4344V27.471V27.5075V27.5441V27.5807V27.6172V27.6538V27.6904V27.727V27.7635V27.8001V27.8367V27.8733V27.9099V27.9465V27.9831V28.0197V28.0563V28.0929V28.1296V28.1662V28.2028V28.2394V28.2761V28.3127V28.3494V28.386V28.4227V28.4593V28.496V28.5327V28.5693V28.606V28.6427V28.6794V28.7161V28.7528V28.7895V28.8262V28.8629V28.8996V28.9364V28.9731V29.0098V29.0466V29.0833V29.1201V29.1569V29.1936V29.2304V29.2672V29.304V29.3407V29.3775V29.4143V29.4511V29.488V29.5248V29.5616V29.5984V29.6353V29.6721V29.709V29.7458V29.7827V29.8196V29.8565V29.8934V29.9303V29.9672V30.0041V30.041V30.0779V30.1148V30.1518V30.1887V30.2257V30.2626V30.2996V30.3366V30.3736V30.4106V30.4476V30.4846V30.5216V30.5586V30.5956V30.6327V30.6697V30.7068V30.7438V30.7809V30.818V30.8551V30.8922V30.9293V30.9664V31.0035V31.0407V31.0778V31.115V31.1521V31.1893V31.2265V31.2636V31.3008V31.338V31.3753V31.4125V31.4497V31.487V31.5242V31.5615V31.5987V31.636V31.6733V31.7106V31.7479V31.7852V31.8226V31.8599V31.8973V31.9346V31.972V32.0094V32.0468V32.0842V32.1216V32.159V32.1964V32.2339V32.2713V32.3088V32.3463V32.3838V32.4213V32.4588V32.4963V32.5338V32.5714V32.6089V32.6465V32.6841V32.7217V32.7593V32.7969V32.8345V32.8721V32.9098V32.9474V32.9851V33.0228V33.0605V33.0982V33.1359V33.1736V33.2114V33.2491V33.2869V33.3246V33.3624V33.4002V33.4381V33.4759V33.5137V33.5516V33.5894V33.6273V33.6652V33.7031V33.741V33.779V33.8169V33.8549V33.8928V33.9308V33.9688V34.0068V34.0448V34.0829V34.1209V34.159V34.1971V34.2352V34.2733V34.3114V34.3495V34.3877V34.4258V34.464V34.5022V34.5404V34.5786V34.6168V34.6551V34.6933V34.7316V34.7699V34.8082V34.8465V34.8849V34.9232V34.9616V35C59.5 39.1421 56.1421 42.5 52 42.5H51.5094Z" stroke="white"/>
</g>
<g filter="url(#filter1_d_1638_8387)">
<path d="M23.5669 21.1628C23.5669 19.506 24.91 18.1628 26.5669 18.1628V18.1628C28.2237 18.1628 29.5669 19.506 29.5669 21.1628V30.1628H23.5669V21.1628Z" fill="white"/>
</g>
<g filter="url(#filter2_d_1638_8387)">
<path d="M41.5669 21.1628C41.5669 19.5059 42.91 18.1628 44.5669 18.1628V18.1628C46.2237 18.1628 47.5669 19.5059 47.5669 21.1628V30.1628H41.5669V21.1628Z" fill="white"/>
</g>
<defs>
<filter id="filter0_d_1638_8387" x="0" y="0" width="70" height="61.2922" filterUnits="userSpaceOnUse" color-interpolation-filters="sRGB">
<feFlood flood-opacity="0" result="BackgroundImageFix"/>
<feColorMatrix in="SourceAlpha" type="matrix" values="0 0 0 0 0 0 0 0 0 0 0 0 0 0 0 0 0 0 127 0" result="hardAlpha"/>
<feOffset dy="2"/>
<feGaussianBlur stdDeviation="5"/>
<feComposite in2="hardAlpha" operator="out"/>
<feColorMatrix type="matrix" values="0 0 0 0 0.232403 0 0 0 0 0.5259 0 0 0 0 0.837419 0 0 0 1 0"/>
<feBlend mode="normal" in2="BackgroundImageFix" result="effect1_dropShadow_1638_8387"/>
<feBlend mode="normal" in="SourceGraphic" in2="effect1_dropShadow_1638_8387" result="shape"/>
</filter>
<filter id="filter1_d_1638_8387" x="19.5669" y="14.1628" width="18" height="24" filterUnits="userSpaceOnUse" color-interpolation-filters="sRGB">
<feFlood flood-opacity="0" result="BackgroundImageFix"/>
<feColorMatrix in="SourceAlpha" type="matrix" values="0 0 0 0 0 0 0 0 0 0 0 0 0 0 0 0 0 0 127 0" result="hardAlpha"/>
<feOffset dx="2" dy="2"/>
<feGaussianBlur stdDeviation="3"/>
<feComposite in2="hardAlpha" operator="out"/>
<feColorMatrix type="matrix" values="0 0 0 0 0 0 0 0 0 0 0 0 0 0 0 0 0 0 0.15 0"/>
<feBlend mode="normal" in2="BackgroundImageFix" result="effect1_dropShadow_1638_8387"/>
<feBlend mode="normal" in="SourceGraphic" in2="effect1_dropShadow_1638_8387" result="shape"/>
</filter>
<filter id="filter2_d_1638_8387" x="33.5669" y="14.1628" width="18" height="24" filterUnits="userSpaceOnUse" color-interpolation-filters="sRGB">
<feFlood flood-opacity="0" result="BackgroundImageFix"/>
<feColorMatrix in="SourceAlpha" type="matrix" values="0 0 0 0 0 0 0 0 0 0 0 0 0 0 0 0 0 0 127 0" result="hardAlpha"/>
<feOffset dx="-2" dy="2"/>
<feGaussianBlur stdDeviation="3"/>
<feComposite in2="hardAlpha" operator="out"/>
<feColorMatrix type="matrix" values="0 0 0 0 0 0 0 0 0 0 0 0 0 0 0 0 0 0 0.15 0"/>
<feBlend mode="normal" in2="BackgroundImageFix" result="effect1_dropShadow_1638_8387"/>
<feBlend mode="normal" in="SourceGraphic" in2="effect1_dropShadow_1638_8387" result="shape"/>
</filter>
<radialGradient id="paint0_diamond_1638_8387" cx="0" cy="0" r="1" gradientUnits="userSpaceOnUse" gradientTransform="translate(10 12.5) rotate(35.8377) scale(55.509 83.2635)">
<stop offset="0.119176" stop-color="#51BE96"/>
<stop offset="0.75" stop-color="#3F5EFB"/>
<stop offset="0.966539" stop-color="#102BB6"/>
</radialGradient>
</defs>
</svg>
