<svg width="12" height="12" viewBox="0 0 12 12" fill="none" xmlns="http://www.w3.org/2000/svg">
<g clip-path="url(#clip0_3035_2148)">
<g clip-path="url(#clip1_3035_2148)">
<path d="M6 9.5V9.51953C5.25781 9.51953 4.57422 9.38281 3.94922 9.16797C3.73438 9.32422 3.34375 9.55859 2.89453 9.75391C2.42578 9.96875 1.85938 10.1445 1.3125 10.1445C1.17578 10.1445 1.05859 10.0664 1.01953 9.94922C0.960938 9.83203 1 9.69531 1.07812 9.59766C1.09766 9.59766 1.09766 9.57812 1.11719 9.57812C1.13672 9.53906 1.17578 9.5 1.21484 9.46094C1.29297 9.36328 1.39062 9.20703 1.50781 9.03125C1.70312 8.71875 1.87891 8.28906 1.91797 7.80078C1.33203 7.13672 1 6.33594 1 5.4375C1 3.21094 3.22656 1.375 6 1.375C8.75391 1.375 11 3.21094 11 5.4375C11 7.68359 8.75391 9.5 6 9.5ZM5.23828 4.51953C5.41406 4.34375 5.41406 4.05078 5.23828 3.85547C5.04297 3.67969 4.75 3.67969 4.57422 3.85547L3.32422 5.10547C3.12891 5.30078 3.12891 5.59375 3.32422 5.76953L4.57422 7.01953C4.75 7.21484 5.04297 7.21484 5.23828 7.01953C5.41406 6.84375 5.41406 6.55078 5.23828 6.35547L4.32031 5.4375L5.23828 4.51953ZM7.42578 3.85547V3.875C7.23047 3.67969 6.9375 3.67969 6.76172 3.875C6.56641 4.05078 6.56641 4.34375 6.76172 4.51953L7.67969 5.4375L6.76172 6.35547C6.56641 6.55078 6.56641 6.84375 6.76172 7.01953C6.9375 7.21484 7.23047 7.21484 7.42578 7.01953L8.67578 5.76953C8.85156 5.59375 8.85156 5.30078 8.67578 5.10547L7.42578 3.85547Z" fill="#5959EB"/>
</g>
</g>
<defs>
<clipPath id="clip0_3035_2148">
<rect width="12" height="12" fill="white"/>
</clipPath>
<clipPath id="clip1_3035_2148">
<rect width="12" height="12" fill="white"/>
</clipPath>
</defs>
</svg>
