<svg width="12" height="12" viewBox="0 0 12 12" fill="none" xmlns="http://www.w3.org/2000/svg">
<g clip-path="url(#clip0_3035_2143)">
<path d="M4.55469 3.07422L1.87891 5.75L4.55469 8.44531C4.80859 8.67969 4.80859 9.08984 4.55469 9.32422C4.32031 9.57812 3.91016 9.57812 3.67578 9.32422L0.550781 6.19922C0.296875 5.96484 0.296875 5.55469 0.550781 5.32031L3.67578 2.19531C3.91016 1.94141 4.32031 1.94141 4.55469 2.19531C4.80859 2.42969 4.80859 2.83984 4.55469 3.07422ZM7.42578 3.07422C7.17188 2.83984 7.17188 2.42969 7.42578 2.19531C7.66016 1.94141 8.07031 1.94141 8.30469 2.19531L11.4297 5.32031C11.6836 5.55469 11.6836 5.96484 11.4297 6.19922L8.30469 9.32422C8.07031 9.57812 7.66016 9.57812 7.42578 9.32422C7.17188 9.08984 7.17188 8.67969 7.42578 8.44531L10.1016 5.75L7.42578 3.07422Z" fill="#5959EB"/>
</g>
<defs>
<clipPath id="clip0_3035_2143">
<rect width="12" height="12" fill="white"/>
</clipPath>
</defs>
</svg>
