<svg width="43" height="32" viewBox="0 0 43 32" fill="none" xmlns="http://www.w3.org/2000/svg">
<path opacity="0.2" d="M3.875 0.545898H38.625C40.7441 0.545898 42.5 2.30176 42.5 4.4209V21.8584C42.5 24.0381 40.7441 25.7334 38.625 25.7334H18.709L11.2012 31.3643C10.8984 31.6064 10.5352 31.6064 10.1719 31.4854C9.86914 31.3037 9.6875 31.001 9.6875 30.5771V25.7334H3.875C1.69531 25.7334 0 24.0381 0 21.8584V4.4209C0 2.30176 1.69531 0.545898 3.875 0.545898Z" fill="#F0F2F2"/>
<path d="M14.108 11.7439H11.983C11.9223 11.3954 11.8106 11.0867 11.6477 10.8177C11.4848 10.545 11.2822 10.3139 11.0398 10.1246C10.7973 9.93516 10.5208 9.79312 10.2102 9.69842C9.90341 9.59993 9.57197 9.55069 9.21591 9.55069C8.58333 9.55069 8.02273 9.70978 7.53409 10.028C7.04545 10.3424 6.66288 10.8045 6.38636 11.4143C6.10985 12.0204 5.97159 12.7609 5.97159 13.6359C5.97159 14.5261 6.10985 15.2761 6.38636 15.8859C6.66667 16.492 7.04924 16.9503 7.53409 17.2609C8.02273 17.5677 8.58144 17.7211 9.21023 17.7211C9.55871 17.7211 9.88447 17.6757 10.1875 17.5848C10.4943 17.4901 10.7689 17.3518 11.0114 17.17C11.2576 16.9882 11.464 16.7647 11.6307 16.4996C11.8011 16.2344 11.9186 15.9314 11.983 15.5905L14.108 15.6018C14.0284 16.1549 13.8561 16.6738 13.5909 17.1586C13.3295 17.6435 12.9867 18.0715 12.5625 18.4427C12.1383 18.8102 11.642 19.098 11.0739 19.3064C10.5057 19.5109 9.875 19.6132 9.18182 19.6132C8.15909 19.6132 7.24621 19.3765 6.44318 18.903C5.64015 18.4295 5.00758 17.7458 4.54545 16.8518C4.08333 15.9579 3.85227 14.8859 3.85227 13.6359C3.85227 12.3821 4.08523 11.3102 4.55114 10.42C5.01705 9.52607 5.65152 8.84236 6.45455 8.36887C7.25758 7.89539 8.16667 7.65865 9.18182 7.65865C9.82955 7.65865 10.4318 7.74956 10.9886 7.93137C11.5455 8.11319 12.0417 8.38024 12.4773 8.73251C12.9129 9.081 13.2708 9.50903 13.5511 10.0166C13.8352 10.5204 14.0208 11.0961 14.108 11.7439ZM18.0043 14.3405V19.4541H15.9474V7.81774H17.9588V12.2098H18.0611C18.2656 11.7174 18.5819 11.3291 19.0099 11.045C19.4418 10.7571 19.991 10.6132 20.6577 10.6132C21.2637 10.6132 21.7921 10.7401 22.2429 10.9939C22.6937 11.2477 23.0421 11.6189 23.2884 12.1075C23.5384 12.5961 23.6634 13.1927 23.6634 13.8973V19.4541H21.6065V14.2155C21.6065 13.6283 21.455 13.1719 21.152 12.8461C20.8527 12.5166 20.4323 12.3518 19.8906 12.3518C19.527 12.3518 19.2012 12.4314 18.9134 12.5905C18.6293 12.7458 18.4058 12.9711 18.2429 13.2666C18.0838 13.5621 18.0043 13.92 18.0043 14.3405ZM28.2713 19.6302C27.7183 19.6302 27.2202 19.5318 26.777 19.3348C26.3376 19.134 25.9891 18.8386 25.7315 18.4484C25.4777 18.0583 25.3509 17.5772 25.3509 17.0052C25.3509 16.5128 25.4418 16.1056 25.6236 15.7836C25.8054 15.4617 26.0535 15.2041 26.3679 15.0109C26.6823 14.8177 27.0365 14.6719 27.4304 14.5734C27.8281 14.4711 28.2391 14.3973 28.6634 14.3518C29.1747 14.2988 29.5895 14.2514 29.9077 14.2098C30.2259 14.1643 30.4569 14.0961 30.6009 14.0052C30.7486 13.9105 30.8224 13.7647 30.8224 13.5677V13.5336C30.8224 13.1056 30.6955 12.7742 30.4418 12.5393C30.188 12.3045 29.8224 12.1871 29.3452 12.1871C28.8414 12.1871 28.4418 12.2969 28.1463 12.5166C27.8546 12.7363 27.6577 12.9958 27.5554 13.295L25.6349 13.0223C25.7865 12.492 26.0365 12.0488 26.3849 11.6927C26.7334 11.3329 27.1596 11.0639 27.6634 10.8859C28.1671 10.7041 28.724 10.6132 29.3338 10.6132C29.7543 10.6132 30.1728 10.6624 30.5895 10.7609C31.0062 10.8594 31.3868 11.0223 31.7315 11.2496C32.0762 11.473 32.3527 11.778 32.5611 12.1643C32.7732 12.5507 32.8793 13.0336 32.8793 13.6132V19.4541H30.902V18.2552H30.8338C30.7088 18.4977 30.5327 18.7249 30.3054 18.9371C30.0819 19.1454 29.7997 19.314 29.4588 19.4427C29.1217 19.5677 28.7259 19.6302 28.2713 19.6302ZM28.8054 18.1189C29.2183 18.1189 29.5762 18.0374 29.8793 17.8746C30.1823 17.7079 30.4152 17.4882 30.5781 17.2155C30.7448 16.9427 30.8281 16.6454 30.8281 16.3234V15.295C30.7637 15.348 30.6539 15.3973 30.4986 15.4427C30.3471 15.4882 30.1766 15.528 29.9872 15.5621C29.7978 15.5961 29.6103 15.6264 29.4247 15.653C29.2391 15.6795 29.0781 15.7022 28.9418 15.7211C28.6349 15.7628 28.3603 15.831 28.1179 15.9257C27.8755 16.0204 27.6842 16.153 27.544 16.3234C27.4039 16.4901 27.3338 16.706 27.3338 16.9711C27.3338 17.3499 27.4721 17.6359 27.7486 17.8291C28.0251 18.0223 28.3774 18.1189 28.8054 18.1189ZM39.3054 10.7268V12.3177H34.2884V10.7268H39.3054ZM35.527 8.63592H37.5838V16.8291C37.5838 17.1056 37.6255 17.3177 37.7088 17.4655C37.7959 17.6094 37.9096 17.7079 38.0497 17.7609C38.1899 17.814 38.3452 17.8405 38.5156 17.8405C38.6444 17.8405 38.7618 17.831 38.8679 17.8121C38.9777 17.7931 39.0611 17.7761 39.1179 17.7609L39.4645 19.3689C39.3546 19.4068 39.1974 19.4484 38.9929 19.4939C38.7921 19.5393 38.5459 19.5658 38.2543 19.5734C37.7391 19.5886 37.2751 19.5109 36.8622 19.3405C36.4493 19.1662 36.1217 18.8973 35.8793 18.5336C35.6406 18.17 35.5232 17.7155 35.527 17.17V8.63592Z" fill="white"/>
</svg>
