<svg width="12" height="10" viewBox="0 0 12 10" fill="none" xmlns="http://www.w3.org/2000/svg">
<mask id="path-1-outside-1_3217_2267" maskUnits="userSpaceOnUse" x="0" y="-1" width="12" height="11" fill="black">
<rect fill="white" y="-1" width="12" height="11"/>
<path d="M7.39648 0.986328C7.18164 0.771484 6.85938 0.771484 6.66602 0.986328L4.28125 3.37109L8.19141 7.28125L10.5762 4.89648C10.791 4.70312 10.791 4.38086 10.5762 4.1875L7.39648 0.986328ZM1.40234 6.22852C1.1875 6.44336 1.1875 6.76562 1.40234 6.95898L3.29297 8.84961C3.37891 8.95703 3.50781 9 3.6582 9H6.25781C6.4082 9 6.53711 8.95703 6.62305 8.84961L7.71875 7.77539L3.78711 3.84375L1.40234 6.22852ZM6.17188 0.492188C6.64453 0.0195312 7.39648 0.0195312 7.86914 0.492188L11.0703 3.69336C11.543 4.16602 11.543 4.91797 11.0703 5.39062L7.43945 9H11.1562C11.3281 9 11.5 9.17188 11.5 9.34375C11.5 9.53711 11.3281 9.6875 11.1562 9.6875H6.34375C6.30078 9.6875 6.2793 9.6875 6.25781 9.6875H3.6582C3.33594 9.6875 3.03516 9.58008 2.79883 9.34375L0.908203 7.45312C0.435547 6.98047 0.435547 6.22852 0.908203 5.75586L6.17188 0.492188Z"/>
</mask>
<path d="M7.39648 0.986328C7.18164 0.771484 6.85938 0.771484 6.66602 0.986328L4.28125 3.37109L8.19141 7.28125L10.5762 4.89648C10.791 4.70312 10.791 4.38086 10.5762 4.1875L7.39648 0.986328ZM1.40234 6.22852C1.1875 6.44336 1.1875 6.76562 1.40234 6.95898L3.29297 8.84961C3.37891 8.95703 3.50781 9 3.6582 9H6.25781C6.4082 9 6.53711 8.95703 6.62305 8.84961L7.71875 7.77539L3.78711 3.84375L1.40234 6.22852ZM6.17188 0.492188C6.64453 0.0195312 7.39648 0.0195312 7.86914 0.492188L11.0703 3.69336C11.543 4.16602 11.543 4.91797 11.0703 5.39062L7.43945 9H11.1562C11.3281 9 11.5 9.17188 11.5 9.34375C11.5 9.53711 11.3281 9.6875 11.1562 9.6875H6.34375C6.30078 9.6875 6.2793 9.6875 6.25781 9.6875H3.6582C3.33594 9.6875 3.03516 9.58008 2.79883 9.34375L0.908203 7.45312C0.435547 6.98047 0.435547 6.22852 0.908203 5.75586L6.17188 0.492188Z" fill="black"/>
<path d="M7.39648 0.986328L7.53838 0.845383L7.53791 0.844907L7.39648 0.986328ZM6.66602 0.986328L6.80763 1.12795L6.81467 1.12012L6.66602 0.986328ZM4.28125 3.37109L4.13983 3.22967L3.99841 3.37109L4.13983 3.51252L4.28125 3.37109ZM8.19141 7.28125L8.04998 7.42267L8.19141 7.56409L8.33283 7.42267L8.19141 7.28125ZM10.5762 4.89648L10.4422 4.74762L10.4348 4.75506L10.5762 4.89648ZM10.5762 4.1875L10.4341 4.32867L10.4424 4.33616L10.5762 4.1875ZM1.40234 6.95898L1.54396 6.81737L1.53614 6.81033L1.40234 6.95898ZM3.29297 8.84961L3.44914 8.72467L3.44222 8.71602L3.43439 8.70819L3.29297 8.84961ZM6.62305 8.84961L6.48303 8.70679L6.47441 8.71525L6.46687 8.72467L6.62305 8.84961ZM7.71875 7.77539L7.85876 7.91821L8.003 7.7768L7.86017 7.63397L7.71875 7.77539ZM3.78711 3.84375L3.92853 3.70233L3.78711 3.56091L3.64569 3.70233L3.78711 3.84375ZM11.0703 5.39062L11.2113 5.53247L11.2117 5.53205L11.0703 5.39062ZM7.43945 9L7.29845 8.85816L6.95458 9.2H7.43945V9ZM7.53791 0.844907C7.24933 0.55633 6.7941 0.545044 6.51736 0.852535L6.81467 1.12012C6.92465 0.997925 7.11395 0.986639 7.25506 1.12775L7.53791 0.844907ZM6.52459 0.844907L4.13983 3.22967L4.42267 3.51252L6.80744 1.12775L6.52459 0.844907ZM4.13983 3.51252L8.04998 7.42267L8.33283 7.13983L4.42267 3.22967L4.13983 3.51252ZM8.33283 7.42267L10.7176 5.03791L10.4348 4.75506L8.04998 7.13983L8.33283 7.42267ZM10.71 5.04514C11.0131 4.77234 11.0131 4.31165 10.71 4.03884L10.4424 4.33616C10.5689 4.45007 10.5689 4.63391 10.4424 4.74783L10.71 5.04514ZM10.7181 4.04656L7.53838 0.845384L7.25459 1.12727L10.4343 4.32844L10.7181 4.04656ZM1.26092 6.08709C0.972346 6.37567 0.961059 6.8309 1.26855 7.10764L1.53614 6.81033C1.41394 6.70035 1.40265 6.51105 1.54377 6.36994L1.26092 6.08709ZM1.26092 7.10041L3.15155 8.99103L3.43439 8.70819L1.54377 6.81756L1.26092 7.10041ZM3.1368 8.97455C3.27346 9.14538 3.47097 9.2 3.6582 9.2V8.8C3.54466 8.8 3.48435 8.76868 3.44914 8.72467L3.1368 8.97455ZM3.6582 9.2H6.25781V8.8H3.6582V9.2ZM6.25781 9.2C6.44505 9.2 6.64255 9.14538 6.77922 8.97455L6.46687 8.72467C6.43166 8.76868 6.37136 8.8 6.25781 8.8V9.2ZM6.76306 8.99242L7.85876 7.91821L7.57874 7.63258L6.48303 8.70679L6.76306 8.99242ZM7.86017 7.63397L3.92853 3.70233L3.64569 3.98517L7.57733 7.91681L7.86017 7.63397ZM3.64569 3.70233L1.26092 6.08709L1.54377 6.36994L3.92853 3.98517L3.64569 3.70233ZM6.3133 0.633609C6.70785 0.239057 7.33317 0.239057 7.72772 0.633609L8.01056 0.350766C7.4598 -0.199995 6.58121 -0.199995 6.03045 0.350766L6.3133 0.633609ZM7.72772 0.633609L10.9289 3.83478L11.2117 3.55194L8.01056 0.350766L7.72772 0.633609ZM10.9289 3.83478C11.3234 4.22933 11.3234 4.85465 10.9289 5.2492L11.2117 5.53205C11.7625 4.98129 11.7625 4.1027 11.2117 3.55194L10.9289 3.83478ZM10.9293 5.24878L7.29845 8.85816L7.58045 9.14184L11.2113 5.53247L10.9293 5.24878ZM7.43945 9.2H11.1562V8.8H7.43945V9.2ZM11.1562 9.2C11.1771 9.2 11.2148 9.21246 11.2512 9.24884C11.2875 9.28523 11.3 9.32286 11.3 9.34375H11.7C11.7 9.19277 11.6265 9.05852 11.534 8.966C11.4415 8.87348 11.3072 8.8 11.1562 8.8V9.2ZM11.3 9.34375C11.3 9.41872 11.2258 9.4875 11.1562 9.4875V9.8875C11.4305 9.8875 11.7 9.6555 11.7 9.34375H11.3ZM11.1562 9.4875H6.34375V9.8875H11.1562V9.4875ZM6.34375 9.4875C6.34367 9.4875 6.34358 9.4875 6.3435 9.4875C6.34341 9.4875 6.34333 9.4875 6.34325 9.4875C6.34316 9.4875 6.34308 9.4875 6.343 9.4875C6.34291 9.4875 6.34283 9.4875 6.34275 9.4875C6.34266 9.4875 6.34258 9.4875 6.3425 9.4875C6.34241 9.4875 6.34233 9.4875 6.34225 9.4875C6.34217 9.4875 6.34208 9.4875 6.342 9.4875C6.34192 9.4875 6.34183 9.4875 6.34175 9.4875C6.34167 9.4875 6.34159 9.4875 6.3415 9.4875C6.34142 9.4875 6.34134 9.4875 6.34126 9.4875C6.34117 9.4875 6.34109 9.4875 6.34101 9.4875C6.34093 9.4875 6.34085 9.4875 6.34076 9.4875C6.34068 9.4875 6.3406 9.4875 6.34052 9.4875C6.34044 9.4875 6.34035 9.4875 6.34027 9.4875C6.34019 9.4875 6.34011 9.4875 6.34003 9.4875C6.33995 9.4875 6.33987 9.4875 6.33978 9.4875C6.3397 9.4875 6.33962 9.4875 6.33954 9.4875C6.33946 9.4875 6.33938 9.4875 6.3393 9.4875C6.33922 9.4875 6.33913 9.4875 6.33905 9.4875C6.33897 9.4875 6.33889 9.4875 6.33881 9.4875C6.33873 9.4875 6.33865 9.4875 6.33857 9.4875C6.33849 9.4875 6.33841 9.4875 6.33833 9.4875C6.33825 9.4875 6.33817 9.4875 6.33809 9.4875C6.33801 9.4875 6.33793 9.4875 6.33785 9.4875C6.33777 9.4875 6.33769 9.4875 6.33761 9.4875C6.33753 9.4875 6.33745 9.4875 6.33737 9.4875C6.33729 9.4875 6.33721 9.4875 6.33713 9.4875C6.33705 9.4875 6.33697 9.4875 6.33689 9.4875C6.33681 9.4875 6.33673 9.4875 6.33665 9.4875C6.33657 9.4875 6.33649 9.4875 6.33641 9.4875C6.33633 9.4875 6.33626 9.4875 6.33618 9.4875C6.3361 9.4875 6.33602 9.4875 6.33594 9.4875C6.33586 9.4875 6.33578 9.4875 6.3357 9.4875C6.33562 9.4875 6.33555 9.4875 6.33547 9.4875C6.33539 9.4875 6.33531 9.4875 6.33523 9.4875C6.33515 9.4875 6.33508 9.4875 6.335 9.4875C6.33492 9.4875 6.33484 9.4875 6.33476 9.4875C6.33468 9.4875 6.33461 9.4875 6.33453 9.4875C6.33445 9.4875 6.33437 9.4875 6.3343 9.4875C6.33422 9.4875 6.33414 9.4875 6.33406 9.4875C6.33398 9.4875 6.33391 9.4875 6.33383 9.4875C6.33375 9.4875 6.33367 9.4875 6.3336 9.4875C6.33352 9.4875 6.33344 9.4875 6.33337 9.4875C6.33329 9.4875 6.33321 9.4875 6.33313 9.4875C6.33306 9.4875 6.33298 9.4875 6.3329 9.4875C6.33283 9.4875 6.33275 9.4875 6.33267 9.4875C6.3326 9.4875 6.33252 9.4875 6.33244 9.4875C6.33237 9.4875 6.33229 9.4875 6.33221 9.4875C6.33214 9.4875 6.33206 9.4875 6.33198 9.4875C6.33191 9.4875 6.33183 9.4875 6.33176 9.4875C6.33168 9.4875 6.3316 9.4875 6.33153 9.4875C6.33145 9.4875 6.33138 9.4875 6.3313 9.4875C6.33122 9.4875 6.33115 9.4875 6.33107 9.4875C6.331 9.4875 6.33092 9.4875 6.33085 9.4875C6.33077 9.4875 6.3307 9.4875 6.33062 9.4875C6.33054 9.4875 6.33047 9.4875 6.33039 9.4875C6.33032 9.4875 6.33024 9.4875 6.33017 9.4875C6.33009 9.4875 6.33002 9.4875 6.32994 9.4875C6.32987 9.4875 6.32979 9.4875 6.32972 9.4875C6.32964 9.4875 6.32957 9.4875 6.32949 9.4875C6.32942 9.4875 6.32935 9.4875 6.32927 9.4875C6.3292 9.4875 6.32912 9.4875 6.32905 9.4875C6.32897 9.4875 6.3289 9.4875 6.32882 9.4875C6.32875 9.4875 6.32868 9.4875 6.3286 9.4875C6.32853 9.4875 6.32845 9.4875 6.32838 9.4875C6.32831 9.4875 6.32823 9.4875 6.32816 9.4875C6.32808 9.4875 6.32801 9.4875 6.32794 9.4875C6.32786 9.4875 6.32779 9.4875 6.32772 9.4875C6.32764 9.4875 6.32757 9.4875 6.3275 9.4875C6.32742 9.4875 6.32735 9.4875 6.32728 9.4875C6.3272 9.4875 6.32713 9.4875 6.32706 9.4875C6.32698 9.4875 6.32691 9.4875 6.32684 9.4875C6.32676 9.4875 6.32669 9.4875 6.32662 9.4875C6.32655 9.4875 6.32647 9.4875 6.3264 9.4875C6.32633 9.4875 6.32626 9.4875 6.32618 9.4875C6.32611 9.4875 6.32604 9.4875 6.32597 9.4875C6.32589 9.4875 6.32582 9.4875 6.32575 9.4875C6.32568 9.4875 6.3256 9.4875 6.32553 9.4875C6.32546 9.4875 6.32539 9.4875 6.32532 9.4875C6.32524 9.4875 6.32517 9.4875 6.3251 9.4875C6.32503 9.4875 6.32496 9.4875 6.32488 9.4875C6.32481 9.4875 6.32474 9.4875 6.32467 9.4875C6.3246 9.4875 6.32453 9.4875 6.32446 9.4875C6.32438 9.4875 6.32431 9.4875 6.32424 9.4875C6.32417 9.4875 6.3241 9.4875 6.32403 9.4875C6.32396 9.4875 6.32389 9.4875 6.32381 9.4875C6.32374 9.4875 6.32367 9.4875 6.3236 9.4875C6.32353 9.4875 6.32346 9.4875 6.32339 9.4875C6.32332 9.4875 6.32325 9.4875 6.32318 9.4875C6.32311 9.4875 6.32304 9.4875 6.32297 9.4875C6.3229 9.4875 6.32282 9.4875 6.32275 9.4875C6.32268 9.4875 6.32261 9.4875 6.32254 9.4875C6.32247 9.4875 6.3224 9.4875 6.32233 9.4875C6.32226 9.4875 6.32219 9.4875 6.32212 9.4875C6.32205 9.4875 6.32198 9.4875 6.32191 9.4875C6.32184 9.4875 6.32177 9.4875 6.3217 9.4875C6.32163 9.4875 6.32157 9.4875 6.3215 9.4875C6.32143 9.4875 6.32136 9.4875 6.32129 9.4875C6.32122 9.4875 6.32115 9.4875 6.32108 9.4875C6.32101 9.4875 6.32094 9.4875 6.32087 9.4875C6.3208 9.4875 6.32073 9.4875 6.32066 9.4875C6.3206 9.4875 6.32053 9.4875 6.32046 9.4875C6.32039 9.4875 6.32032 9.4875 6.32025 9.4875C6.32018 9.4875 6.32011 9.4875 6.32004 9.4875C6.31998 9.4875 6.31991 9.4875 6.31984 9.4875C6.31977 9.4875 6.3197 9.4875 6.31963 9.4875C6.31957 9.4875 6.3195 9.4875 6.31943 9.4875C6.31936 9.4875 6.31929 9.4875 6.31922 9.4875C6.31916 9.4875 6.31909 9.4875 6.31902 9.4875C6.31895 9.4875 6.31889 9.4875 6.31882 9.4875C6.31875 9.4875 6.31868 9.4875 6.31861 9.4875C6.31855 9.4875 6.31848 9.4875 6.31841 9.4875C6.31834 9.4875 6.31828 9.4875 6.31821 9.4875C6.31814 9.4875 6.31807 9.4875 6.31801 9.4875C6.31794 9.4875 6.31787 9.4875 6.3178 9.4875C6.31774 9.4875 6.31767 9.4875 6.3176 9.4875C6.31754 9.4875 6.31747 9.4875 6.3174 9.4875C6.31734 9.4875 6.31727 9.4875 6.3172 9.4875C6.31713 9.4875 6.31707 9.4875 6.317 9.4875C6.31693 9.4875 6.31687 9.4875 6.3168 9.4875C6.31673 9.4875 6.31667 9.4875 6.3166 9.4875C6.31654 9.4875 6.31647 9.4875 6.3164 9.4875C6.31634 9.4875 6.31627 9.4875 6.3162 9.4875C6.31614 9.4875 6.31607 9.4875 6.31601 9.4875C6.31594 9.4875 6.31587 9.4875 6.31581 9.4875C6.31574 9.4875 6.31568 9.4875 6.31561 9.4875C6.31554 9.4875 6.31548 9.4875 6.31541 9.4875C6.31535 9.4875 6.31528 9.4875 6.31522 9.4875C6.31515 9.4875 6.31508 9.4875 6.31502 9.4875C6.31495 9.4875 6.31489 9.4875 6.31482 9.4875C6.31476 9.4875 6.31469 9.4875 6.31463 9.4875C6.31456 9.4875 6.3145 9.4875 6.31443 9.4875C6.31437 9.4875 6.3143 9.4875 6.31424 9.4875C6.31417 9.4875 6.31411 9.4875 6.31404 9.4875C6.31398 9.4875 6.31391 9.4875 6.31385 9.4875C6.31378 9.4875 6.31372 9.4875 6.31365 9.4875C6.31359 9.4875 6.31353 9.4875 6.31346 9.4875C6.3134 9.4875 6.31333 9.4875 6.31327 9.4875C6.3132 9.4875 6.31314 9.4875 6.31307 9.4875C6.31301 9.4875 6.31295 9.4875 6.31288 9.4875C6.31282 9.4875 6.31275 9.4875 6.31269 9.4875C6.31263 9.4875 6.31256 9.4875 6.3125 9.4875C6.31243 9.4875 6.31237 9.4875 6.31231 9.4875C6.31224 9.4875 6.31218 9.4875 6.31212 9.4875C6.31205 9.4875 6.31199 9.4875 6.31192 9.4875C6.31186 9.4875 6.3118 9.4875 6.31173 9.4875C6.31167 9.4875 6.31161 9.4875 6.31154 9.4875C6.31148 9.4875 6.31142 9.4875 6.31135 9.4875C6.31129 9.4875 6.31123 9.4875 6.31117 9.4875C6.3111 9.4875 6.31104 9.4875 6.31098 9.4875C6.31091 9.4875 6.31085 9.4875 6.31079 9.4875C6.31072 9.4875 6.31066 9.4875 6.3106 9.4875C6.31054 9.4875 6.31047 9.4875 6.31041 9.4875C6.31035 9.4875 6.31029 9.4875 6.31022 9.4875C6.31016 9.4875 6.3101 9.4875 6.31004 9.4875C6.30997 9.4875 6.30991 9.4875 6.30985 9.4875C6.30979 9.4875 6.30973 9.4875 6.30966 9.4875C6.3096 9.4875 6.30954 9.4875 6.30948 9.4875C6.30941 9.4875 6.30935 9.4875 6.30929 9.4875C6.30923 9.4875 6.30917 9.4875 6.30911 9.4875C6.30904 9.4875 6.30898 9.4875 6.30892 9.4875C6.30886 9.4875 6.3088 9.4875 6.30874 9.4875C6.30867 9.4875 6.30861 9.4875 6.30855 9.4875C6.30849 9.4875 6.30843 9.4875 6.30837 9.4875C6.30831 9.4875 6.30824 9.4875 6.30818 9.4875C6.30812 9.4875 6.30806 9.4875 6.308 9.4875C6.30794 9.4875 6.30788 9.4875 6.30782 9.4875C6.30775 9.4875 6.30769 9.4875 6.30763 9.4875C6.30757 9.4875 6.30751 9.4875 6.30745 9.4875C6.30739 9.4875 6.30733 9.4875 6.30727 9.4875C6.30721 9.4875 6.30715 9.4875 6.30709 9.4875C6.30703 9.4875 6.30697 9.4875 6.3069 9.4875C6.30684 9.4875 6.30678 9.4875 6.30672 9.4875C6.30666 9.4875 6.3066 9.4875 6.30654 9.4875C6.30648 9.4875 6.30642 9.4875 6.30636 9.4875C6.3063 9.4875 6.30624 9.4875 6.30618 9.4875C6.30612 9.4875 6.30606 9.4875 6.306 9.4875C6.30594 9.4875 6.30588 9.4875 6.30582 9.4875C6.30576 9.4875 6.3057 9.4875 6.30564 9.4875C6.30558 9.4875 6.30552 9.4875 6.30546 9.4875C6.3054 9.4875 6.30535 9.4875 6.30529 9.4875C6.30523 9.4875 6.30517 9.4875 6.30511 9.4875C6.30505 9.4875 6.30499 9.4875 6.30493 9.4875C6.30487 9.4875 6.30481 9.4875 6.30475 9.4875C6.30469 9.4875 6.30463 9.4875 6.30457 9.4875C6.30451 9.4875 6.30446 9.4875 6.3044 9.4875C6.30434 9.4875 6.30428 9.4875 6.30422 9.4875C6.30416 9.4875 6.3041 9.4875 6.30404 9.4875C6.30398 9.4875 6.30393 9.4875 6.30387 9.4875C6.30381 9.4875 6.30375 9.4875 6.30369 9.4875C6.30363 9.4875 6.30357 9.4875 6.30352 9.4875C6.30346 9.4875 6.3034 9.4875 6.30334 9.4875C6.30328 9.4875 6.30322 9.4875 6.30317 9.4875C6.30311 9.4875 6.30305 9.4875 6.30299 9.4875C6.30293 9.4875 6.30288 9.4875 6.30282 9.4875C6.30276 9.4875 6.3027 9.4875 6.30264 9.4875C6.30259 9.4875 6.30253 9.4875 6.30247 9.4875C6.30241 9.4875 6.30235 9.4875 6.3023 9.4875C6.30224 9.4875 6.30218 9.4875 6.30212 9.4875C6.30207 9.4875 6.30201 9.4875 6.30195 9.4875C6.30189 9.4875 6.30184 9.4875 6.30178 9.4875C6.30172 9.4875 6.30166 9.4875 6.30161 9.4875C6.30155 9.4875 6.30149 9.4875 6.30143 9.4875C6.30138 9.4875 6.30132 9.4875 6.30126 9.4875C6.3012 9.4875 6.30115 9.4875 6.30109 9.4875C6.30103 9.4875 6.30098 9.4875 6.30092 9.4875C6.30086 9.4875 6.30081 9.4875 6.30075 9.4875C6.30069 9.4875 6.30064 9.4875 6.30058 9.4875C6.30052 9.4875 6.30047 9.4875 6.30041 9.4875C6.30035 9.4875 6.3003 9.4875 6.30024 9.4875C6.30018 9.4875 6.30013 9.4875 6.30007 9.4875C6.30001 9.4875 6.29996 9.4875 6.2999 9.4875C6.29984 9.4875 6.29979 9.4875 6.29973 9.4875C6.29967 9.4875 6.29962 9.4875 6.29956 9.4875C6.29951 9.4875 6.29945 9.4875 6.29939 9.4875C6.29934 9.4875 6.29928 9.4875 6.29923 9.4875C6.29917 9.4875 6.29911 9.4875 6.29906 9.4875C6.299 9.4875 6.29895 9.4875 6.29889 9.4875C6.29883 9.4875 6.29878 9.4875 6.29872 9.4875C6.29867 9.4875 6.29861 9.4875 6.29856 9.4875C6.2985 9.4875 6.29845 9.4875 6.29839 9.4875C6.29833 9.4875 6.29828 9.4875 6.29822 9.4875C6.29817 9.4875 6.29811 9.4875 6.29806 9.4875C6.298 9.4875 6.29795 9.4875 6.29789 9.4875C6.29784 9.4875 6.29778 9.4875 6.29773 9.4875C6.29767 9.4875 6.29762 9.4875 6.29756 9.4875C6.29751 9.4875 6.29745 9.4875 6.2974 9.4875C6.29734 9.4875 6.29729 9.4875 6.29723 9.4875C6.29718 9.4875 6.29712 9.4875 6.29707 9.4875C6.29701 9.4875 6.29696 9.4875 6.2969 9.4875C6.29685 9.4875 6.29679 9.4875 6.29674 9.4875C6.29668 9.4875 6.29663 9.4875 6.29657 9.4875C6.29652 9.4875 6.29647 9.4875 6.29641 9.4875C6.29636 9.4875 6.2963 9.4875 6.29625 9.4875C6.29619 9.4875 6.29614 9.4875 6.29608 9.4875C6.29603 9.4875 6.29598 9.4875 6.29592 9.4875C6.29587 9.4875 6.29581 9.4875 6.29576 9.4875C6.29571 9.4875 6.29565 9.4875 6.2956 9.4875C6.29554 9.4875 6.29549 9.4875 6.29544 9.4875C6.29538 9.4875 6.29533 9.4875 6.29527 9.4875C6.29522 9.4875 6.29517 9.4875 6.29511 9.4875C6.29506 9.4875 6.29501 9.4875 6.29495 9.4875C6.2949 9.4875 6.29485 9.4875 6.29479 9.4875C6.29474 9.4875 6.29468 9.4875 6.29463 9.4875C6.29458 9.4875 6.29452 9.4875 6.29447 9.4875C6.29442 9.4875 6.29436 9.4875 6.29431 9.4875C6.29426 9.4875 6.2942 9.4875 6.29415 9.4875C6.2941 9.4875 6.29404 9.4875 6.29399 9.4875C6.29394 9.4875 6.29389 9.4875 6.29383 9.4875C6.29378 9.4875 6.29373 9.4875 6.29367 9.4875C6.29362 9.4875 6.29357 9.4875 6.29351 9.4875C6.29346 9.4875 6.29341 9.4875 6.29336 9.4875C6.2933 9.4875 6.29325 9.4875 6.2932 9.4875C6.29315 9.4875 6.29309 9.4875 6.29304 9.4875C6.29299 9.4875 6.29293 9.4875 6.29288 9.4875C6.29283 9.4875 6.29278 9.4875 6.29272 9.4875C6.29267 9.4875 6.29262 9.4875 6.29257 9.4875C6.29251 9.4875 6.29246 9.4875 6.29241 9.4875C6.29236 9.4875 6.29231 9.4875 6.29225 9.4875C6.2922 9.4875 6.29215 9.4875 6.2921 9.4875C6.29205 9.4875 6.29199 9.4875 6.29194 9.4875C6.29189 9.4875 6.29184 9.4875 6.29178 9.4875C6.29173 9.4875 6.29168 9.4875 6.29163 9.4875C6.29158 9.4875 6.29153 9.4875 6.29147 9.4875C6.29142 9.4875 6.29137 9.4875 6.29132 9.4875C6.29127 9.4875 6.29121 9.4875 6.29116 9.4875C6.29111 9.4875 6.29106 9.4875 6.29101 9.4875C6.29096 9.4875 6.29091 9.4875 6.29085 9.4875C6.2908 9.4875 6.29075 9.4875 6.2907 9.4875C6.29065 9.4875 6.2906 9.4875 6.29055 9.4875C6.29049 9.4875 6.29044 9.4875 6.29039 9.4875C6.29034 9.4875 6.29029 9.4875 6.29024 9.4875C6.29019 9.4875 6.29014 9.4875 6.29008 9.4875C6.29003 9.4875 6.28998 9.4875 6.28993 9.4875C6.28988 9.4875 6.28983 9.4875 6.28978 9.4875C6.28973 9.4875 6.28968 9.4875 6.28963 9.4875C6.28957 9.4875 6.28952 9.4875 6.28947 9.4875C6.28942 9.4875 6.28937 9.4875 6.28932 9.4875C6.28927 9.4875 6.28922 9.4875 6.28917 9.4875C6.28912 9.4875 6.28907 9.4875 6.28902 9.4875C6.28897 9.4875 6.28892 9.4875 6.28887 9.4875C6.28881 9.4875 6.28876 9.4875 6.28871 9.4875C6.28866 9.4875 6.28861 9.4875 6.28856 9.4875C6.28851 9.4875 6.28846 9.4875 6.28841 9.4875C6.28836 9.4875 6.28831 9.4875 6.28826 9.4875C6.28821 9.4875 6.28816 9.4875 6.28811 9.4875C6.28806 9.4875 6.28801 9.4875 6.28796 9.4875C6.28791 9.4875 6.28786 9.4875 6.28781 9.4875C6.28776 9.4875 6.28771 9.4875 6.28766 9.4875C6.28761 9.4875 6.28756 9.4875 6.28751 9.4875C6.28746 9.4875 6.28741 9.4875 6.28736 9.4875C6.28731 9.4875 6.28726 9.4875 6.28721 9.4875C6.28716 9.4875 6.28711 9.4875 6.28706 9.4875C6.28701 9.4875 6.28696 9.4875 6.28691 9.4875C6.28686 9.4875 6.28681 9.4875 6.28677 9.4875C6.28672 9.4875 6.28667 9.4875 6.28662 9.4875C6.28657 9.4875 6.28652 9.4875 6.28647 9.4875C6.28642 9.4875 6.28637 9.4875 6.28632 9.4875C6.28627 9.4875 6.28622 9.4875 6.28617 9.4875C6.28612 9.4875 6.28607 9.4875 6.28603 9.4875C6.28598 9.4875 6.28593 9.4875 6.28588 9.4875C6.28583 9.4875 6.28578 9.4875 6.28573 9.4875C6.28568 9.4875 6.28563 9.4875 6.28558 9.4875C6.28553 9.4875 6.28549 9.4875 6.28544 9.4875C6.28539 9.4875 6.28534 9.4875 6.28529 9.4875C6.28524 9.4875 6.28519 9.4875 6.28514 9.4875C6.2851 9.4875 6.28505 9.4875 6.285 9.4875C6.28495 9.4875 6.2849 9.4875 6.28485 9.4875C6.2848 9.4875 6.28475 9.4875 6.28471 9.4875C6.28466 9.4875 6.28461 9.4875 6.28456 9.4875C6.28451 9.4875 6.28446 9.4875 6.28442 9.4875C6.28437 9.4875 6.28432 9.4875 6.28427 9.4875C6.28422 9.4875 6.28417 9.4875 6.28412 9.4875C6.28408 9.4875 6.28403 9.4875 6.28398 9.4875C6.28393 9.4875 6.28388 9.4875 6.28384 9.4875C6.28379 9.4875 6.28374 9.4875 6.28369 9.4875C6.28364 9.4875 6.2836 9.4875 6.28355 9.4875C6.2835 9.4875 6.28345 9.4875 6.2834 9.4875C6.28335 9.4875 6.28331 9.4875 6.28326 9.4875C6.28321 9.4875 6.28316 9.4875 6.28312 9.4875C6.28307 9.4875 6.28302 9.4875 6.28297 9.4875C6.28292 9.4875 6.28288 9.4875 6.28283 9.4875C6.28278 9.4875 6.28273 9.4875 6.28269 9.4875C6.28264 9.4875 6.28259 9.4875 6.28254 9.4875C6.2825 9.4875 6.28245 9.4875 6.2824 9.4875C6.28235 9.4875 6.2823 9.4875 6.28226 9.4875C6.28221 9.4875 6.28216 9.4875 6.28211 9.4875C6.28207 9.4875 6.28202 9.4875 6.28197 9.4875C6.28193 9.4875 6.28188 9.4875 6.28183 9.4875C6.28178 9.4875 6.28174 9.4875 6.28169 9.4875C6.28164 9.4875 6.28159 9.4875 6.28155 9.4875C6.2815 9.4875 6.28145 9.4875 6.28141 9.4875C6.28136 9.4875 6.28131 9.4875 6.28126 9.4875C6.28122 9.4875 6.28117 9.4875 6.28112 9.4875C6.28108 9.4875 6.28103 9.4875 6.28098 9.4875C6.28093 9.4875 6.28089 9.4875 6.28084 9.4875C6.28079 9.4875 6.28075 9.4875 6.2807 9.4875C6.28065 9.4875 6.28061 9.4875 6.28056 9.4875C6.28051 9.4875 6.28047 9.4875 6.28042 9.4875C6.28037 9.4875 6.28033 9.4875 6.28028 9.4875C6.28023 9.4875 6.28019 9.4875 6.28014 9.4875C6.28009 9.4875 6.28005 9.4875 6.28 9.4875C6.27995 9.4875 6.27991 9.4875 6.27986 9.4875C6.27981 9.4875 6.27977 9.4875 6.27972 9.4875C6.27967 9.4875 6.27963 9.4875 6.27958 9.4875C6.27953 9.4875 6.27949 9.4875 6.27944 9.4875C6.2794 9.4875 6.27935 9.4875 6.2793 9.4875C6.27926 9.4875 6.27921 9.4875 6.27916 9.4875C6.27912 9.4875 6.27907 9.4875 6.27903 9.4875C6.27898 9.4875 6.27893 9.4875 6.27889 9.4875C6.27884 9.4875 6.27879 9.4875 6.27875 9.4875C6.2787 9.4875 6.27866 9.4875 6.27861 9.4875C6.27856 9.4875 6.27852 9.4875 6.27847 9.4875C6.27843 9.4875 6.27838 9.4875 6.27833 9.4875C6.27829 9.4875 6.27824 9.4875 6.2782 9.4875C6.27815 9.4875 6.2781 9.4875 6.27806 9.4875C6.27801 9.4875 6.27797 9.4875 6.27792 9.4875C6.27787 9.4875 6.27783 9.4875 6.27778 9.4875C6.27774 9.4875 6.27769 9.4875 6.27765 9.4875C6.2776 9.4875 6.27755 9.4875 6.27751 9.4875C6.27746 9.4875 6.27742 9.4875 6.27737 9.4875C6.27733 9.4875 6.27728 9.4875 6.27724 9.4875C6.27719 9.4875 6.27714 9.4875 6.2771 9.4875C6.27705 9.4875 6.27701 9.4875 6.27696 9.4875C6.27692 9.4875 6.27687 9.4875 6.27683 9.4875C6.27678 9.4875 6.27674 9.4875 6.27669 9.4875C6.27664 9.4875 6.2766 9.4875 6.27655 9.4875C6.27651 9.4875 6.27646 9.4875 6.27642 9.4875C6.27637 9.4875 6.27633 9.4875 6.27628 9.4875C6.27624 9.4875 6.27619 9.4875 6.27615 9.4875C6.2761 9.4875 6.27606 9.4875 6.27601 9.4875C6.27597 9.4875 6.27592 9.4875 6.27588 9.4875C6.27583 9.4875 6.27579 9.4875 6.27574 9.4875C6.2757 9.4875 6.27565 9.4875 6.27561 9.4875C6.27556 9.4875 6.27552 9.4875 6.27547 9.4875C6.27543 9.4875 6.27538 9.4875 6.27534 9.4875C6.27529 9.4875 6.27525 9.4875 6.2752 9.4875C6.27516 9.4875 6.27511 9.4875 6.27507 9.4875C6.27502 9.4875 6.27498 9.4875 6.27493 9.4875C6.27489 9.4875 6.27484 9.4875 6.2748 9.4875C6.27475 9.4875 6.27471 9.4875 6.27466 9.4875C6.27462 9.4875 6.27457 9.4875 6.27453 9.4875C6.27448 9.4875 6.27444 9.4875 6.2744 9.4875C6.27435 9.4875 6.27431 9.4875 6.27426 9.4875C6.27422 9.4875 6.27417 9.4875 6.27413 9.4875C6.27408 9.4875 6.27404 9.4875 6.27399 9.4875C6.27395 9.4875 6.27391 9.4875 6.27386 9.4875C6.27382 9.4875 6.27377 9.4875 6.27373 9.4875C6.27368 9.4875 6.27364 9.4875 6.27359 9.4875C6.27355 9.4875 6.27351 9.4875 6.27346 9.4875C6.27342 9.4875 6.27337 9.4875 6.27333 9.4875C6.27328 9.4875 6.27324 9.4875 6.2732 9.4875C6.27315 9.4875 6.27311 9.4875 6.27306 9.4875C6.27302 9.4875 6.27297 9.4875 6.27293 9.4875C6.27289 9.4875 6.27284 9.4875 6.2728 9.4875C6.27275 9.4875 6.27271 9.4875 6.27267 9.4875C6.27262 9.4875 6.27258 9.4875 6.27253 9.4875C6.27249 9.4875 6.27244 9.4875 6.2724 9.4875C6.27236 9.4875 6.27231 9.4875 6.27227 9.4875C6.27222 9.4875 6.27218 9.4875 6.27214 9.4875C6.27209 9.4875 6.27205 9.4875 6.272 9.4875C6.27196 9.4875 6.27192 9.4875 6.27187 9.4875C6.27183 9.4875 6.27179 9.4875 6.27174 9.4875C6.2717 9.4875 6.27165 9.4875 6.27161 9.4875C6.27157 9.4875 6.27152 9.4875 6.27148 9.4875C6.27143 9.4875 6.27139 9.4875 6.27135 9.4875C6.2713 9.4875 6.27126 9.4875 6.27122 9.4875C6.27117 9.4875 6.27113 9.4875 6.27108 9.4875C6.27104 9.4875 6.271 9.4875 6.27095 9.4875C6.27091 9.4875 6.27087 9.4875 6.27082 9.4875C6.27078 9.4875 6.27074 9.4875 6.27069 9.4875C6.27065 9.4875 6.2706 9.4875 6.27056 9.4875C6.27052 9.4875 6.27047 9.4875 6.27043 9.4875C6.27039 9.4875 6.27034 9.4875 6.2703 9.4875C6.27026 9.4875 6.27021 9.4875 6.27017 9.4875C6.27013 9.4875 6.27008 9.4875 6.27004 9.4875C6.27 9.4875 6.26995 9.4875 6.26991 9.4875C6.26987 9.4875 6.26982 9.4875 6.26978 9.4875C6.26974 9.4875 6.26969 9.4875 6.26965 9.4875C6.26961 9.4875 6.26956 9.4875 6.26952 9.4875C6.26948 9.4875 6.26943 9.4875 6.26939 9.4875C6.26935 9.4875 6.2693 9.4875 6.26926 9.4875C6.26922 9.4875 6.26917 9.4875 6.26913 9.4875C6.26909 9.4875 6.26904 9.4875 6.269 9.4875C6.26896 9.4875 6.26891 9.4875 6.26887 9.4875C6.26883 9.4875 6.26878 9.4875 6.26874 9.4875C6.2687 9.4875 6.26865 9.4875 6.26861 9.4875C6.26857 9.4875 6.26852 9.4875 6.26848 9.4875C6.26844 9.4875 6.2684 9.4875 6.26835 9.4875C6.26831 9.4875 6.26827 9.4875 6.26822 9.4875C6.26818 9.4875 6.26814 9.4875 6.26809 9.4875C6.26805 9.4875 6.26801 9.4875 6.26797 9.4875C6.26792 9.4875 6.26788 9.4875 6.26784 9.4875C6.26779 9.4875 6.26775 9.4875 6.26771 9.4875C6.26766 9.4875 6.26762 9.4875 6.26758 9.4875C6.26754 9.4875 6.26749 9.4875 6.26745 9.4875C6.26741 9.4875 6.26736 9.4875 6.26732 9.4875C6.26728 9.4875 6.26724 9.4875 6.26719 9.4875C6.26715 9.4875 6.26711 9.4875 6.26706 9.4875C6.26702 9.4875 6.26698 9.4875 6.26694 9.4875C6.26689 9.4875 6.26685 9.4875 6.26681 9.4875C6.26676 9.4875 6.26672 9.4875 6.26668 9.4875C6.26664 9.4875 6.26659 9.4875 6.26655 9.4875C6.26651 9.4875 6.26647 9.4875 6.26642 9.4875C6.26638 9.4875 6.26634 9.4875 6.26629 9.4875C6.26625 9.4875 6.26621 9.4875 6.26617 9.4875C6.26612 9.4875 6.26608 9.4875 6.26604 9.4875C6.266 9.4875 6.26595 9.4875 6.26591 9.4875C6.26587 9.4875 6.26583 9.4875 6.26578 9.4875C6.26574 9.4875 6.2657 9.4875 6.26566 9.4875C6.26561 9.4875 6.26557 9.4875 6.26553 9.4875C6.26549 9.4875 6.26544 9.4875 6.2654 9.4875C6.26536 9.4875 6.26532 9.4875 6.26527 9.4875C6.26523 9.4875 6.26519 9.4875 6.26514 9.4875C6.2651 9.4875 6.26506 9.4875 6.26502 9.4875C6.26498 9.4875 6.26493 9.4875 6.26489 9.4875C6.26485 9.4875 6.26481 9.4875 6.26476 9.4875C6.26472 9.4875 6.26468 9.4875 6.26464 9.4875C6.26459 9.4875 6.26455 9.4875 6.26451 9.4875C6.26447 9.4875 6.26442 9.4875 6.26438 9.4875C6.26434 9.4875 6.2643 9.4875 6.26425 9.4875C6.26421 9.4875 6.26417 9.4875 6.26413 9.4875C6.26408 9.4875 6.26404 9.4875 6.264 9.4875C6.26396 9.4875 6.26392 9.4875 6.26387 9.4875C6.26383 9.4875 6.26379 9.4875 6.26375 9.4875C6.2637 9.4875 6.26366 9.4875 6.26362 9.4875C6.26358 9.4875 6.26353 9.4875 6.26349 9.4875C6.26345 9.4875 6.26341 9.4875 6.26337 9.4875C6.26332 9.4875 6.26328 9.4875 6.26324 9.4875C6.2632 9.4875 6.26315 9.4875 6.26311 9.4875C6.26307 9.4875 6.26303 9.4875 6.26298 9.4875C6.26294 9.4875 6.2629 9.4875 6.26286 9.4875C6.26282 9.4875 6.26277 9.4875 6.26273 9.4875C6.26269 9.4875 6.26265 9.4875 6.2626 9.4875C6.26256 9.4875 6.26252 9.4875 6.26248 9.4875C6.26244 9.4875 6.26239 9.4875 6.26235 9.4875C6.26231 9.4875 6.26227 9.4875 6.26223 9.4875C6.26218 9.4875 6.26214 9.4875 6.2621 9.4875C6.26206 9.4875 6.26201 9.4875 6.26197 9.4875C6.26193 9.4875 6.26189 9.4875 6.26185 9.4875C6.2618 9.4875 6.26176 9.4875 6.26172 9.4875C6.26168 9.4875 6.26164 9.4875 6.26159 9.4875C6.26155 9.4875 6.26151 9.4875 6.26147 9.4875C6.26143 9.4875 6.26138 9.4875 6.26134 9.4875C6.2613 9.4875 6.26126 9.4875 6.26121 9.4875C6.26117 9.4875 6.26113 9.4875 6.26109 9.4875C6.26105 9.4875 6.261 9.4875 6.26096 9.4875C6.26092 9.4875 6.26088 9.4875 6.26084 9.4875C6.26079 9.4875 6.26075 9.4875 6.26071 9.4875C6.26067 9.4875 6.26063 9.4875 6.26058 9.4875C6.26054 9.4875 6.2605 9.4875 6.26046 9.4875C6.26042 9.4875 6.26037 9.4875 6.26033 9.4875C6.26029 9.4875 6.26025 9.4875 6.26021 9.4875C6.26016 9.4875 6.26012 9.4875 6.26008 9.4875C6.26004 9.4875 6.26 9.4875 6.25995 9.4875C6.25991 9.4875 6.25987 9.4875 6.25983 9.4875C6.25979 9.4875 6.25974 9.4875 6.2597 9.4875C6.25966 9.4875 6.25962 9.4875 6.25958 9.4875C6.25953 9.4875 6.25949 9.4875 6.25945 9.4875C6.25941 9.4875 6.25937 9.4875 6.25932 9.4875C6.25928 9.4875 6.25924 9.4875 6.2592 9.4875C6.25916 9.4875 6.25911 9.4875 6.25907 9.4875C6.25903 9.4875 6.25899 9.4875 6.25895 9.4875C6.2589 9.4875 6.25886 9.4875 6.25882 9.4875C6.25878 9.4875 6.25874 9.4875 6.25869 9.4875C6.25865 9.4875 6.25861 9.4875 6.25857 9.4875C6.25853 9.4875 6.25848 9.4875 6.25844 9.4875C6.2584 9.4875 6.25836 9.4875 6.25832 9.4875C6.25827 9.4875 6.25823 9.4875 6.25819 9.4875C6.25815 9.4875 6.25811 9.4875 6.25806 9.4875C6.25802 9.4875 6.25798 9.4875 6.25794 9.4875C6.2579 9.4875 6.25785 9.4875 6.25781 9.4875V9.8875C6.25785 9.8875 6.2579 9.8875 6.25794 9.8875C6.25798 9.8875 6.25802 9.8875 6.25806 9.8875C6.25811 9.8875 6.25815 9.8875 6.25819 9.8875C6.25823 9.8875 6.25827 9.8875 6.25832 9.8875C6.25836 9.8875 6.2584 9.8875 6.25844 9.8875C6.25848 9.8875 6.25853 9.8875 6.25857 9.8875C6.25861 9.8875 6.25865 9.8875 6.25869 9.8875C6.25874 9.8875 6.25878 9.8875 6.25882 9.8875C6.25886 9.8875 6.2589 9.8875 6.25895 9.8875C6.25899 9.8875 6.25903 9.8875 6.25907 9.8875C6.25911 9.8875 6.25916 9.8875 6.2592 9.8875C6.25924 9.8875 6.25928 9.8875 6.25932 9.8875C6.25937 9.8875 6.25941 9.8875 6.25945 9.8875C6.25949 9.8875 6.25953 9.8875 6.25958 9.8875C6.25962 9.8875 6.25966 9.8875 6.2597 9.8875C6.25974 9.8875 6.25979 9.8875 6.25983 9.8875C6.25987 9.8875 6.25991 9.8875 6.25995 9.8875C6.26 9.8875 6.26004 9.8875 6.26008 9.8875C6.26012 9.8875 6.26016 9.8875 6.26021 9.8875C6.26025 9.8875 6.26029 9.8875 6.26033 9.8875C6.26037 9.8875 6.26042 9.8875 6.26046 9.8875C6.2605 9.8875 6.26054 9.8875 6.26058 9.8875C6.26063 9.8875 6.26067 9.8875 6.26071 9.8875C6.26075 9.8875 6.26079 9.8875 6.26084 9.8875C6.26088 9.8875 6.26092 9.8875 6.26096 9.8875C6.261 9.8875 6.26105 9.8875 6.26109 9.8875C6.26113 9.8875 6.26117 9.8875 6.26121 9.8875C6.26126 9.8875 6.2613 9.8875 6.26134 9.8875C6.26138 9.8875 6.26143 9.8875 6.26147 9.8875C6.26151 9.8875 6.26155 9.8875 6.26159 9.8875C6.26164 9.8875 6.26168 9.8875 6.26172 9.8875C6.26176 9.8875 6.2618 9.8875 6.26185 9.8875C6.26189 9.8875 6.26193 9.8875 6.26197 9.8875C6.26201 9.8875 6.26206 9.8875 6.2621 9.8875C6.26214 9.8875 6.26218 9.8875 6.26223 9.8875C6.26227 9.8875 6.26231 9.8875 6.26235 9.8875C6.26239 9.8875 6.26244 9.8875 6.26248 9.8875C6.26252 9.8875 6.26256 9.8875 6.2626 9.8875C6.26265 9.8875 6.26269 9.8875 6.26273 9.8875C6.26277 9.8875 6.26282 9.8875 6.26286 9.8875C6.2629 9.8875 6.26294 9.8875 6.26298 9.8875C6.26303 9.8875 6.26307 9.8875 6.26311 9.8875C6.26315 9.8875 6.2632 9.8875 6.26324 9.8875C6.26328 9.8875 6.26332 9.8875 6.26337 9.8875C6.26341 9.8875 6.26345 9.8875 6.26349 9.8875C6.26353 9.8875 6.26358 9.8875 6.26362 9.8875C6.26366 9.8875 6.2637 9.8875 6.26375 9.8875C6.26379 9.8875 6.26383 9.8875 6.26387 9.8875C6.26392 9.8875 6.26396 9.8875 6.264 9.8875C6.26404 9.8875 6.26408 9.8875 6.26413 9.8875C6.26417 9.8875 6.26421 9.8875 6.26425 9.8875C6.2643 9.8875 6.26434 9.8875 6.26438 9.8875C6.26442 9.8875 6.26447 9.8875 6.26451 9.8875C6.26455 9.8875 6.26459 9.8875 6.26464 9.8875C6.26468 9.8875 6.26472 9.8875 6.26476 9.8875C6.26481 9.8875 6.26485 9.8875 6.26489 9.8875C6.26493 9.8875 6.26498 9.8875 6.26502 9.8875C6.26506 9.8875 6.2651 9.8875 6.26514 9.8875C6.26519 9.8875 6.26523 9.8875 6.26527 9.8875C6.26532 9.8875 6.26536 9.8875 6.2654 9.8875C6.26544 9.8875 6.26549 9.8875 6.26553 9.8875C6.26557 9.8875 6.26561 9.8875 6.26566 9.8875C6.2657 9.8875 6.26574 9.8875 6.26578 9.8875C6.26583 9.8875 6.26587 9.8875 6.26591 9.8875C6.26595 9.8875 6.266 9.8875 6.26604 9.8875C6.26608 9.8875 6.26612 9.8875 6.26617 9.8875C6.26621 9.8875 6.26625 9.8875 6.26629 9.8875C6.26634 9.8875 6.26638 9.8875 6.26642 9.8875C6.26647 9.8875 6.26651 9.8875 6.26655 9.8875C6.26659 9.8875 6.26664 9.8875 6.26668 9.8875C6.26672 9.8875 6.26676 9.8875 6.26681 9.8875C6.26685 9.8875 6.26689 9.8875 6.26694 9.8875C6.26698 9.8875 6.26702 9.8875 6.26706 9.8875C6.26711 9.8875 6.26715 9.8875 6.26719 9.8875C6.26724 9.8875 6.26728 9.8875 6.26732 9.8875C6.26736 9.8875 6.26741 9.8875 6.26745 9.8875C6.26749 9.8875 6.26754 9.8875 6.26758 9.8875C6.26762 9.8875 6.26766 9.8875 6.26771 9.8875C6.26775 9.8875 6.26779 9.8875 6.26784 9.8875C6.26788 9.8875 6.26792 9.8875 6.26797 9.8875C6.26801 9.8875 6.26805 9.8875 6.26809 9.8875C6.26814 9.8875 6.26818 9.8875 6.26822 9.8875C6.26827 9.8875 6.26831 9.8875 6.26835 9.8875C6.2684 9.8875 6.26844 9.8875 6.26848 9.8875C6.26852 9.8875 6.26857 9.8875 6.26861 9.8875C6.26865 9.8875 6.2687 9.8875 6.26874 9.8875C6.26878 9.8875 6.26883 9.8875 6.26887 9.8875C6.26891 9.8875 6.26896 9.8875 6.269 9.8875C6.26904 9.8875 6.26909 9.8875 6.26913 9.8875C6.26917 9.8875 6.26922 9.8875 6.26926 9.8875C6.2693 9.8875 6.26935 9.8875 6.26939 9.8875C6.26943 9.8875 6.26948 9.8875 6.26952 9.8875C6.26956 9.8875 6.26961 9.8875 6.26965 9.8875C6.26969 9.8875 6.26974 9.8875 6.26978 9.8875C6.26982 9.8875 6.26987 9.8875 6.26991 9.8875C6.26995 9.8875 6.27 9.8875 6.27004 9.8875C6.27008 9.8875 6.27013 9.8875 6.27017 9.8875C6.27021 9.8875 6.27026 9.8875 6.2703 9.8875C6.27034 9.8875 6.27039 9.8875 6.27043 9.8875C6.27047 9.8875 6.27052 9.8875 6.27056 9.8875C6.2706 9.8875 6.27065 9.8875 6.27069 9.8875C6.27074 9.8875 6.27078 9.8875 6.27082 9.8875C6.27087 9.8875 6.27091 9.8875 6.27095 9.8875C6.271 9.8875 6.27104 9.8875 6.27108 9.8875C6.27113 9.8875 6.27117 9.8875 6.27122 9.8875C6.27126 9.8875 6.2713 9.8875 6.27135 9.8875C6.27139 9.8875 6.27143 9.8875 6.27148 9.8875C6.27152 9.8875 6.27157 9.8875 6.27161 9.8875C6.27165 9.8875 6.2717 9.8875 6.27174 9.8875C6.27179 9.8875 6.27183 9.8875 6.27187 9.8875C6.27192 9.8875 6.27196 9.8875 6.272 9.8875C6.27205 9.8875 6.27209 9.8875 6.27214 9.8875C6.27218 9.8875 6.27222 9.8875 6.27227 9.8875C6.27231 9.8875 6.27236 9.8875 6.2724 9.8875C6.27244 9.8875 6.27249 9.8875 6.27253 9.8875C6.27258 9.8875 6.27262 9.8875 6.27267 9.8875C6.27271 9.8875 6.27275 9.8875 6.2728 9.8875C6.27284 9.8875 6.27289 9.8875 6.27293 9.8875C6.27297 9.8875 6.27302 9.8875 6.27306 9.8875C6.27311 9.8875 6.27315 9.8875 6.2732 9.8875C6.27324 9.8875 6.27328 9.8875 6.27333 9.8875C6.27337 9.8875 6.27342 9.8875 6.27346 9.8875C6.27351 9.8875 6.27355 9.8875 6.27359 9.8875C6.27364 9.8875 6.27368 9.8875 6.27373 9.8875C6.27377 9.8875 6.27382 9.8875 6.27386 9.8875C6.27391 9.8875 6.27395 9.8875 6.27399 9.8875C6.27404 9.8875 6.27408 9.8875 6.27413 9.8875C6.27417 9.8875 6.27422 9.8875 6.27426 9.8875C6.27431 9.8875 6.27435 9.8875 6.2744 9.8875C6.27444 9.8875 6.27448 9.8875 6.27453 9.8875C6.27457 9.8875 6.27462 9.8875 6.27466 9.8875C6.27471 9.8875 6.27475 9.8875 6.2748 9.8875C6.27484 9.8875 6.27489 9.8875 6.27493 9.8875C6.27498 9.8875 6.27502 9.8875 6.27507 9.8875C6.27511 9.8875 6.27516 9.8875 6.2752 9.8875C6.27525 9.8875 6.27529 9.8875 6.27534 9.8875C6.27538 9.8875 6.27543 9.8875 6.27547 9.8875C6.27552 9.8875 6.27556 9.8875 6.27561 9.8875C6.27565 9.8875 6.2757 9.8875 6.27574 9.8875C6.27579 9.8875 6.27583 9.8875 6.27588 9.8875C6.27592 9.8875 6.27597 9.8875 6.27601 9.8875C6.27606 9.8875 6.2761 9.8875 6.27615 9.8875C6.27619 9.8875 6.27624 9.8875 6.27628 9.8875C6.27633 9.8875 6.27637 9.8875 6.27642 9.8875C6.27646 9.8875 6.27651 9.8875 6.27655 9.8875C6.2766 9.8875 6.27664 9.8875 6.27669 9.8875C6.27674 9.8875 6.27678 9.8875 6.27683 9.8875C6.27687 9.8875 6.27692 9.8875 6.27696 9.8875C6.27701 9.8875 6.27705 9.8875 6.2771 9.8875C6.27714 9.8875 6.27719 9.8875 6.27724 9.8875C6.27728 9.8875 6.27733 9.8875 6.27737 9.8875C6.27742 9.8875 6.27746 9.8875 6.27751 9.8875C6.27755 9.8875 6.2776 9.8875 6.27765 9.8875C6.27769 9.8875 6.27774 9.8875 6.27778 9.8875C6.27783 9.8875 6.27787 9.8875 6.27792 9.8875C6.27797 9.8875 6.27801 9.8875 6.27806 9.8875C6.2781 9.8875 6.27815 9.8875 6.2782 9.8875C6.27824 9.8875 6.27829 9.8875 6.27833 9.8875C6.27838 9.8875 6.27843 9.8875 6.27847 9.8875C6.27852 9.8875 6.27856 9.8875 6.27861 9.8875C6.27866 9.8875 6.2787 9.8875 6.27875 9.8875C6.27879 9.8875 6.27884 9.8875 6.27889 9.8875C6.27893 9.8875 6.27898 9.8875 6.27903 9.8875C6.27907 9.8875 6.27912 9.8875 6.27916 9.8875C6.27921 9.8875 6.27926 9.8875 6.2793 9.8875C6.27935 9.8875 6.2794 9.8875 6.27944 9.8875C6.27949 9.8875 6.27953 9.8875 6.27958 9.8875C6.27963 9.8875 6.27967 9.8875 6.27972 9.8875C6.27977 9.8875 6.27981 9.8875 6.27986 9.8875C6.27991 9.8875 6.27995 9.8875 6.28 9.8875C6.28005 9.8875 6.28009 9.8875 6.28014 9.8875C6.28019 9.8875 6.28023 9.8875 6.28028 9.8875C6.28033 9.8875 6.28037 9.8875 6.28042 9.8875C6.28047 9.8875 6.28051 9.8875 6.28056 9.8875C6.28061 9.8875 6.28065 9.8875 6.2807 9.8875C6.28075 9.8875 6.28079 9.8875 6.28084 9.8875C6.28089 9.8875 6.28093 9.8875 6.28098 9.8875C6.28103 9.8875 6.28108 9.8875 6.28112 9.8875C6.28117 9.8875 6.28122 9.8875 6.28126 9.8875C6.28131 9.8875 6.28136 9.8875 6.28141 9.8875C6.28145 9.8875 6.2815 9.8875 6.28155 9.8875C6.28159 9.8875 6.28164 9.8875 6.28169 9.8875C6.28174 9.8875 6.28178 9.8875 6.28183 9.8875C6.28188 9.8875 6.28193 9.8875 6.28197 9.8875C6.28202 9.8875 6.28207 9.8875 6.28211 9.8875C6.28216 9.8875 6.28221 9.8875 6.28226 9.8875C6.2823 9.8875 6.28235 9.8875 6.2824 9.8875C6.28245 9.8875 6.2825 9.8875 6.28254 9.8875C6.28259 9.8875 6.28264 9.8875 6.28269 9.8875C6.28273 9.8875 6.28278 9.8875 6.28283 9.8875C6.28288 9.8875 6.28292 9.8875 6.28297 9.8875C6.28302 9.8875 6.28307 9.8875 6.28312 9.8875C6.28316 9.8875 6.28321 9.8875 6.28326 9.8875C6.28331 9.8875 6.28335 9.8875 6.2834 9.8875C6.28345 9.8875 6.2835 9.8875 6.28355 9.8875C6.2836 9.8875 6.28364 9.8875 6.28369 9.8875C6.28374 9.8875 6.28379 9.8875 6.28384 9.8875C6.28388 9.8875 6.28393 9.8875 6.28398 9.8875C6.28403 9.8875 6.28408 9.8875 6.28412 9.8875C6.28417 9.8875 6.28422 9.8875 6.28427 9.8875C6.28432 9.8875 6.28437 9.8875 6.28442 9.8875C6.28446 9.8875 6.28451 9.8875 6.28456 9.8875C6.28461 9.8875 6.28466 9.8875 6.28471 9.8875C6.28475 9.8875 6.2848 9.8875 6.28485 9.8875C6.2849 9.8875 6.28495 9.8875 6.285 9.8875C6.28505 9.8875 6.2851 9.8875 6.28514 9.8875C6.28519 9.8875 6.28524 9.8875 6.28529 9.8875C6.28534 9.8875 6.28539 9.8875 6.28544 9.8875C6.28549 9.8875 6.28553 9.8875 6.28558 9.8875C6.28563 9.8875 6.28568 9.8875 6.28573 9.8875C6.28578 9.8875 6.28583 9.8875 6.28588 9.8875C6.28593 9.8875 6.28598 9.8875 6.28603 9.8875C6.28607 9.8875 6.28612 9.8875 6.28617 9.8875C6.28622 9.8875 6.28627 9.8875 6.28632 9.8875C6.28637 9.8875 6.28642 9.8875 6.28647 9.8875C6.28652 9.8875 6.28657 9.8875 6.28662 9.8875C6.28667 9.8875 6.28672 9.8875 6.28677 9.8875C6.28681 9.8875 6.28686 9.8875 6.28691 9.8875C6.28696 9.8875 6.28701 9.8875 6.28706 9.8875C6.28711 9.8875 6.28716 9.8875 6.28721 9.8875C6.28726 9.8875 6.28731 9.8875 6.28736 9.8875C6.28741 9.8875 6.28746 9.8875 6.28751 9.8875C6.28756 9.8875 6.28761 9.8875 6.28766 9.8875C6.28771 9.8875 6.28776 9.8875 6.28781 9.8875C6.28786 9.8875 6.28791 9.8875 6.28796 9.8875C6.28801 9.8875 6.28806 9.8875 6.28811 9.8875C6.28816 9.8875 6.28821 9.8875 6.28826 9.8875C6.28831 9.8875 6.28836 9.8875 6.28841 9.8875C6.28846 9.8875 6.28851 9.8875 6.28856 9.8875C6.28861 9.8875 6.28866 9.8875 6.28871 9.8875C6.28876 9.8875 6.28881 9.8875 6.28887 9.8875C6.28892 9.8875 6.28897 9.8875 6.28902 9.8875C6.28907 9.8875 6.28912 9.8875 6.28917 9.8875C6.28922 9.8875 6.28927 9.8875 6.28932 9.8875C6.28937 9.8875 6.28942 9.8875 6.28947 9.8875C6.28952 9.8875 6.28957 9.8875 6.28963 9.8875C6.28968 9.8875 6.28973 9.8875 6.28978 9.8875C6.28983 9.8875 6.28988 9.8875 6.28993 9.8875C6.28998 9.8875 6.29003 9.8875 6.29008 9.8875C6.29014 9.8875 6.29019 9.8875 6.29024 9.8875C6.29029 9.8875 6.29034 9.8875 6.29039 9.8875C6.29044 9.8875 6.29049 9.8875 6.29055 9.8875C6.2906 9.8875 6.29065 9.8875 6.2907 9.8875C6.29075 9.8875 6.2908 9.8875 6.29085 9.8875C6.29091 9.8875 6.29096 9.8875 6.29101 9.8875C6.29106 9.8875 6.29111 9.8875 6.29116 9.8875C6.29121 9.8875 6.29127 9.8875 6.29132 9.8875C6.29137 9.8875 6.29142 9.8875 6.29147 9.8875C6.29153 9.8875 6.29158 9.8875 6.29163 9.8875C6.29168 9.8875 6.29173 9.8875 6.29178 9.8875C6.29184 9.8875 6.29189 9.8875 6.29194 9.8875C6.29199 9.8875 6.29205 9.8875 6.2921 9.8875C6.29215 9.8875 6.2922 9.8875 6.29225 9.8875C6.29231 9.8875 6.29236 9.8875 6.29241 9.8875C6.29246 9.8875 6.29251 9.8875 6.29257 9.8875C6.29262 9.8875 6.29267 9.8875 6.29272 9.8875C6.29278 9.8875 6.29283 9.8875 6.29288 9.8875C6.29293 9.8875 6.29299 9.8875 6.29304 9.8875C6.29309 9.8875 6.29315 9.8875 6.2932 9.8875C6.29325 9.8875 6.2933 9.8875 6.29336 9.8875C6.29341 9.8875 6.29346 9.8875 6.29351 9.8875C6.29357 9.8875 6.29362 9.8875 6.29367 9.8875C6.29373 9.8875 6.29378 9.8875 6.29383 9.8875C6.29389 9.8875 6.29394 9.8875 6.29399 9.8875C6.29404 9.8875 6.2941 9.8875 6.29415 9.8875C6.2942 9.8875 6.29426 9.8875 6.29431 9.8875C6.29436 9.8875 6.29442 9.8875 6.29447 9.8875C6.29452 9.8875 6.29458 9.8875 6.29463 9.8875C6.29468 9.8875 6.29474 9.8875 6.29479 9.8875C6.29485 9.8875 6.2949 9.8875 6.29495 9.8875C6.29501 9.8875 6.29506 9.8875 6.29511 9.8875C6.29517 9.8875 6.29522 9.8875 6.29527 9.8875C6.29533 9.8875 6.29538 9.8875 6.29544 9.8875C6.29549 9.8875 6.29554 9.8875 6.2956 9.8875C6.29565 9.8875 6.29571 9.8875 6.29576 9.8875C6.29581 9.8875 6.29587 9.8875 6.29592 9.8875C6.29598 9.8875 6.29603 9.8875 6.29608 9.8875C6.29614 9.8875 6.29619 9.8875 6.29625 9.8875C6.2963 9.8875 6.29636 9.8875 6.29641 9.8875C6.29647 9.8875 6.29652 9.8875 6.29657 9.8875C6.29663 9.8875 6.29668 9.8875 6.29674 9.8875C6.29679 9.8875 6.29685 9.8875 6.2969 9.8875C6.29696 9.8875 6.29701 9.8875 6.29707 9.8875C6.29712 9.8875 6.29718 9.8875 6.29723 9.8875C6.29729 9.8875 6.29734 9.8875 6.2974 9.8875C6.29745 9.8875 6.29751 9.8875 6.29756 9.8875C6.29762 9.8875 6.29767 9.8875 6.29773 9.8875C6.29778 9.8875 6.29784 9.8875 6.29789 9.8875C6.29795 9.8875 6.298 9.8875 6.29806 9.8875C6.29811 9.8875 6.29817 9.8875 6.29822 9.8875C6.29828 9.8875 6.29833 9.8875 6.29839 9.8875C6.29845 9.8875 6.2985 9.8875 6.29856 9.8875C6.29861 9.8875 6.29867 9.8875 6.29872 9.8875C6.29878 9.8875 6.29883 9.8875 6.29889 9.8875C6.29895 9.8875 6.299 9.8875 6.29906 9.8875C6.29911 9.8875 6.29917 9.8875 6.29923 9.8875C6.29928 9.8875 6.29934 9.8875 6.29939 9.8875C6.29945 9.8875 6.29951 9.8875 6.29956 9.8875C6.29962 9.8875 6.29967 9.8875 6.29973 9.8875C6.29979 9.8875 6.29984 9.8875 6.2999 9.8875C6.29996 9.8875 6.30001 9.8875 6.30007 9.8875C6.30013 9.8875 6.30018 9.8875 6.30024 9.8875C6.3003 9.8875 6.30035 9.8875 6.30041 9.8875C6.30047 9.8875 6.30052 9.8875 6.30058 9.8875C6.30064 9.8875 6.30069 9.8875 6.30075 9.8875C6.30081 9.8875 6.30086 9.8875 6.30092 9.8875C6.30098 9.8875 6.30103 9.8875 6.30109 9.8875C6.30115 9.8875 6.3012 9.8875 6.30126 9.8875C6.30132 9.8875 6.30138 9.8875 6.30143 9.8875C6.30149 9.8875 6.30155 9.8875 6.30161 9.8875C6.30166 9.8875 6.30172 9.8875 6.30178 9.8875C6.30184 9.8875 6.30189 9.8875 6.30195 9.8875C6.30201 9.8875 6.30207 9.8875 6.30212 9.8875C6.30218 9.8875 6.30224 9.8875 6.3023 9.8875C6.30235 9.8875 6.30241 9.8875 6.30247 9.8875C6.30253 9.8875 6.30259 9.8875 6.30264 9.8875C6.3027 9.8875 6.30276 9.8875 6.30282 9.8875C6.30288 9.8875 6.30293 9.8875 6.30299 9.8875C6.30305 9.8875 6.30311 9.8875 6.30317 9.8875C6.30322 9.8875 6.30328 9.8875 6.30334 9.8875C6.3034 9.8875 6.30346 9.8875 6.30352 9.8875C6.30357 9.8875 6.30363 9.8875 6.30369 9.8875C6.30375 9.8875 6.30381 9.8875 6.30387 9.8875C6.30393 9.8875 6.30398 9.8875 6.30404 9.8875C6.3041 9.8875 6.30416 9.8875 6.30422 9.8875C6.30428 9.8875 6.30434 9.8875 6.3044 9.8875C6.30446 9.8875 6.30451 9.8875 6.30457 9.8875C6.30463 9.8875 6.30469 9.8875 6.30475 9.8875C6.30481 9.8875 6.30487 9.8875 6.30493 9.8875C6.30499 9.8875 6.30505 9.8875 6.30511 9.8875C6.30517 9.8875 6.30523 9.8875 6.30529 9.8875C6.30535 9.8875 6.3054 9.8875 6.30546 9.8875C6.30552 9.8875 6.30558 9.8875 6.30564 9.8875C6.3057 9.8875 6.30576 9.8875 6.30582 9.8875C6.30588 9.8875 6.30594 9.8875 6.306 9.8875C6.30606 9.8875 6.30612 9.8875 6.30618 9.8875C6.30624 9.8875 6.3063 9.8875 6.30636 9.8875C6.30642 9.8875 6.30648 9.8875 6.30654 9.8875C6.3066 9.8875 6.30666 9.8875 6.30672 9.8875C6.30678 9.8875 6.30684 9.8875 6.3069 9.8875C6.30697 9.8875 6.30703 9.8875 6.30709 9.8875C6.30715 9.8875 6.30721 9.8875 6.30727 9.8875C6.30733 9.8875 6.30739 9.8875 6.30745 9.8875C6.30751 9.8875 6.30757 9.8875 6.30763 9.8875C6.30769 9.8875 6.30775 9.8875 6.30782 9.8875C6.30788 9.8875 6.30794 9.8875 6.308 9.8875C6.30806 9.8875 6.30812 9.8875 6.30818 9.8875C6.30824 9.8875 6.30831 9.8875 6.30837 9.8875C6.30843 9.8875 6.30849 9.8875 6.30855 9.8875C6.30861 9.8875 6.30867 9.8875 6.30874 9.8875C6.3088 9.8875 6.30886 9.8875 6.30892 9.8875C6.30898 9.8875 6.30904 9.8875 6.30911 9.8875C6.30917 9.8875 6.30923 9.8875 6.30929 9.8875C6.30935 9.8875 6.30941 9.8875 6.30948 9.8875C6.30954 9.8875 6.3096 9.8875 6.30966 9.8875C6.30973 9.8875 6.30979 9.8875 6.30985 9.8875C6.30991 9.8875 6.30997 9.8875 6.31004 9.8875C6.3101 9.8875 6.31016 9.8875 6.31022 9.8875C6.31029 9.8875 6.31035 9.8875 6.31041 9.8875C6.31047 9.8875 6.31054 9.8875 6.3106 9.8875C6.31066 9.8875 6.31072 9.8875 6.31079 9.8875C6.31085 9.8875 6.31091 9.8875 6.31098 9.8875C6.31104 9.8875 6.3111 9.8875 6.31117 9.8875C6.31123 9.8875 6.31129 9.8875 6.31135 9.8875C6.31142 9.8875 6.31148 9.8875 6.31154 9.8875C6.31161 9.8875 6.31167 9.8875 6.31173 9.8875C6.3118 9.8875 6.31186 9.8875 6.31192 9.8875C6.31199 9.8875 6.31205 9.8875 6.31212 9.8875C6.31218 9.8875 6.31224 9.8875 6.31231 9.8875C6.31237 9.8875 6.31243 9.8875 6.3125 9.8875C6.31256 9.8875 6.31263 9.8875 6.31269 9.8875C6.31275 9.8875 6.31282 9.8875 6.31288 9.8875C6.31295 9.8875 6.31301 9.8875 6.31307 9.8875C6.31314 9.8875 6.3132 9.8875 6.31327 9.8875C6.31333 9.8875 6.3134 9.8875 6.31346 9.8875C6.31353 9.8875 6.31359 9.8875 6.31365 9.8875C6.31372 9.8875 6.31378 9.8875 6.31385 9.8875C6.31391 9.8875 6.31398 9.8875 6.31404 9.8875C6.31411 9.8875 6.31417 9.8875 6.31424 9.8875C6.3143 9.8875 6.31437 9.8875 6.31443 9.8875C6.3145 9.8875 6.31456 9.8875 6.31463 9.8875C6.31469 9.8875 6.31476 9.8875 6.31482 9.8875C6.31489 9.8875 6.31495 9.8875 6.31502 9.8875C6.31508 9.8875 6.31515 9.8875 6.31522 9.8875C6.31528 9.8875 6.31535 9.8875 6.31541 9.8875C6.31548 9.8875 6.31554 9.8875 6.31561 9.8875C6.31568 9.8875 6.31574 9.8875 6.31581 9.8875C6.31587 9.8875 6.31594 9.8875 6.31601 9.8875C6.31607 9.8875 6.31614 9.8875 6.3162 9.8875C6.31627 9.8875 6.31634 9.8875 6.3164 9.8875C6.31647 9.8875 6.31654 9.8875 6.3166 9.8875C6.31667 9.8875 6.31673 9.8875 6.3168 9.8875C6.31687 9.8875 6.31693 9.8875 6.317 9.8875C6.31707 9.8875 6.31713 9.8875 6.3172 9.8875C6.31727 9.8875 6.31734 9.8875 6.3174 9.8875C6.31747 9.8875 6.31754 9.8875 6.3176 9.8875C6.31767 9.8875 6.31774 9.8875 6.3178 9.8875C6.31787 9.8875 6.31794 9.8875 6.31801 9.8875C6.31807 9.8875 6.31814 9.8875 6.31821 9.8875C6.31828 9.8875 6.31834 9.8875 6.31841 9.8875C6.31848 9.8875 6.31855 9.8875 6.31861 9.8875C6.31868 9.8875 6.31875 9.8875 6.31882 9.8875C6.31889 9.8875 6.31895 9.8875 6.31902 9.8875C6.31909 9.8875 6.31916 9.8875 6.31922 9.8875C6.31929 9.8875 6.31936 9.8875 6.31943 9.8875C6.3195 9.8875 6.31957 9.8875 6.31963 9.8875C6.3197 9.8875 6.31977 9.8875 6.31984 9.8875C6.31991 9.8875 6.31998 9.8875 6.32004 9.8875C6.32011 9.8875 6.32018 9.8875 6.32025 9.8875C6.32032 9.8875 6.32039 9.8875 6.32046 9.8875C6.32053 9.8875 6.3206 9.8875 6.32066 9.8875C6.32073 9.8875 6.3208 9.8875 6.32087 9.8875C6.32094 9.8875 6.32101 9.8875 6.32108 9.8875C6.32115 9.8875 6.32122 9.8875 6.32129 9.8875C6.32136 9.8875 6.32143 9.8875 6.3215 9.8875C6.32157 9.8875 6.32163 9.8875 6.3217 9.8875C6.32177 9.8875 6.32184 9.8875 6.32191 9.8875C6.32198 9.8875 6.32205 9.8875 6.32212 9.8875C6.32219 9.8875 6.32226 9.8875 6.32233 9.8875C6.3224 9.8875 6.32247 9.8875 6.32254 9.8875C6.32261 9.8875 6.32268 9.8875 6.32275 9.8875C6.32282 9.8875 6.3229 9.8875 6.32297 9.8875C6.32304 9.8875 6.32311 9.8875 6.32318 9.8875C6.32325 9.8875 6.32332 9.8875 6.32339 9.8875C6.32346 9.8875 6.32353 9.8875 6.3236 9.8875C6.32367 9.8875 6.32374 9.8875 6.32381 9.8875C6.32389 9.8875 6.32396 9.8875 6.32403 9.8875C6.3241 9.8875 6.32417 9.8875 6.32424 9.8875C6.32431 9.8875 6.32438 9.8875 6.32446 9.8875C6.32453 9.8875 6.3246 9.8875 6.32467 9.8875C6.32474 9.8875 6.32481 9.8875 6.32488 9.8875C6.32496 9.8875 6.32503 9.8875 6.3251 9.8875C6.32517 9.8875 6.32524 9.8875 6.32532 9.8875C6.32539 9.8875 6.32546 9.8875 6.32553 9.8875C6.3256 9.8875 6.32568 9.8875 6.32575 9.8875C6.32582 9.8875 6.32589 9.8875 6.32597 9.8875C6.32604 9.8875 6.32611 9.8875 6.32618 9.8875C6.32626 9.8875 6.32633 9.8875 6.3264 9.8875C6.32647 9.8875 6.32655 9.8875 6.32662 9.8875C6.32669 9.8875 6.32676 9.8875 6.32684 9.8875C6.32691 9.8875 6.32698 9.8875 6.32706 9.8875C6.32713 9.8875 6.3272 9.8875 6.32728 9.8875C6.32735 9.8875 6.32742 9.8875 6.3275 9.8875C6.32757 9.8875 6.32764 9.8875 6.32772 9.8875C6.32779 9.8875 6.32786 9.8875 6.32794 9.8875C6.32801 9.8875 6.32808 9.8875 6.32816 9.8875C6.32823 9.8875 6.32831 9.8875 6.32838 9.8875C6.32845 9.8875 6.32853 9.8875 6.3286 9.8875C6.32868 9.8875 6.32875 9.8875 6.32882 9.8875C6.3289 9.8875 6.32897 9.8875 6.32905 9.8875C6.32912 9.8875 6.3292 9.8875 6.32927 9.8875C6.32935 9.8875 6.32942 9.8875 6.32949 9.8875C6.32957 9.8875 6.32964 9.8875 6.32972 9.8875C6.32979 9.8875 6.32987 9.8875 6.32994 9.8875C6.33002 9.8875 6.33009 9.8875 6.33017 9.8875C6.33024 9.8875 6.33032 9.8875 6.33039 9.8875C6.33047 9.8875 6.33054 9.8875 6.33062 9.8875C6.3307 9.8875 6.33077 9.8875 6.33085 9.8875C6.33092 9.8875 6.331 9.8875 6.33107 9.8875C6.33115 9.8875 6.33122 9.8875 6.3313 9.8875C6.33138 9.8875 6.33145 9.8875 6.33153 9.8875C6.3316 9.8875 6.33168 9.8875 6.33176 9.8875C6.33183 9.8875 6.33191 9.8875 6.33198 9.8875C6.33206 9.8875 6.33214 9.8875 6.33221 9.8875C6.33229 9.8875 6.33237 9.8875 6.33244 9.8875C6.33252 9.8875 6.3326 9.8875 6.33267 9.8875C6.33275 9.8875 6.33283 9.8875 6.3329 9.8875C6.33298 9.8875 6.33306 9.8875 6.33313 9.8875C6.33321 9.8875 6.33329 9.8875 6.33337 9.8875C6.33344 9.8875 6.33352 9.8875 6.3336 9.8875C6.33367 9.8875 6.33375 9.8875 6.33383 9.8875C6.33391 9.8875 6.33398 9.8875 6.33406 9.8875C6.33414 9.8875 6.33422 9.8875 6.3343 9.8875C6.33437 9.8875 6.33445 9.8875 6.33453 9.8875C6.33461 9.8875 6.33468 9.8875 6.33476 9.8875C6.33484 9.8875 6.33492 9.8875 6.335 9.8875C6.33508 9.8875 6.33515 9.8875 6.33523 9.8875C6.33531 9.8875 6.33539 9.8875 6.33547 9.8875C6.33555 9.8875 6.33562 9.8875 6.3357 9.8875C6.33578 9.8875 6.33586 9.8875 6.33594 9.8875C6.33602 9.8875 6.3361 9.8875 6.33618 9.8875C6.33626 9.8875 6.33633 9.8875 6.33641 9.8875C6.33649 9.8875 6.33657 9.8875 6.33665 9.8875C6.33673 9.8875 6.33681 9.8875 6.33689 9.8875C6.33697 9.8875 6.33705 9.8875 6.33713 9.8875C6.33721 9.8875 6.33729 9.8875 6.33737 9.8875C6.33745 9.8875 6.33753 9.8875 6.33761 9.8875C6.33769 9.8875 6.33777 9.8875 6.33785 9.8875C6.33793 9.8875 6.33801 9.8875 6.33809 9.8875C6.33817 9.8875 6.33825 9.8875 6.33833 9.8875C6.33841 9.8875 6.33849 9.8875 6.33857 9.8875C6.33865 9.8875 6.33873 9.8875 6.33881 9.8875C6.33889 9.8875 6.33897 9.8875 6.33905 9.8875C6.33913 9.8875 6.33922 9.8875 6.3393 9.8875C6.33938 9.8875 6.33946 9.8875 6.33954 9.8875C6.33962 9.8875 6.3397 9.8875 6.33978 9.8875C6.33987 9.8875 6.33995 9.8875 6.34003 9.8875C6.34011 9.8875 6.34019 9.8875 6.34027 9.8875C6.34035 9.8875 6.34044 9.8875 6.34052 9.8875C6.3406 9.8875 6.34068 9.8875 6.34076 9.8875C6.34085 9.8875 6.34093 9.8875 6.34101 9.8875C6.34109 9.8875 6.34117 9.8875 6.34126 9.8875C6.34134 9.8875 6.34142 9.8875 6.3415 9.8875C6.34159 9.8875 6.34167 9.8875 6.34175 9.8875C6.34183 9.8875 6.34192 9.8875 6.342 9.8875C6.34208 9.8875 6.34217 9.8875 6.34225 9.8875C6.34233 9.8875 6.34241 9.8875 6.3425 9.8875C6.34258 9.8875 6.34266 9.8875 6.34275 9.8875C6.34283 9.8875 6.34291 9.8875 6.343 9.8875C6.34308 9.8875 6.34316 9.8875 6.34325 9.8875C6.34333 9.8875 6.34341 9.8875 6.3435 9.8875C6.34358 9.8875 6.34367 9.8875 6.34375 9.8875V9.4875ZM6.25781 9.4875H3.6582V9.8875H6.25781V9.4875ZM3.6582 9.4875C3.38252 9.4875 3.13474 9.39682 2.94025 9.20233L2.65741 9.48517C2.93558 9.76334 3.28935 9.8875 3.6582 9.8875V9.4875ZM2.94025 9.20233L1.04962 7.3117L0.766782 7.59455L2.65741 9.48517L2.94025 9.20233ZM1.04962 7.3117C0.655073 6.91715 0.655073 6.29183 1.04962 5.89728L0.766782 5.61444C0.216021 6.1652 0.216021 7.04379 0.766782 7.59455L1.04962 7.3117ZM1.04962 5.89728L6.3133 0.633609L6.03045 0.350766L0.766782 5.61444L1.04962 5.89728Z" fill="black" mask="url(#path-1-outside-1_3217_2267)"/>
</svg>
