<svg width="12" height="12" viewBox="0 0 12 12" fill="none" xmlns="http://www.w3.org/2000/svg">
<g clip-path="url(#clip0_4436_2110)">
<g clip-path="url(#clip1_4436_2110)">
<path d="M6 0.375C6.36523 0.375 6.70898 0.417969 7.05273 0.482422C7.22461 0.525391 7.52539 0.611328 7.69727 0.912109C7.74023 0.998047 7.76172 1.08398 7.7832 1.16992L7.99805 2.00781C8.01953 2.11523 8.23438 2.24414 8.36328 2.20117L9.17969 1.96484C9.26562 1.94336 9.35156 1.92188 9.4375 1.92188C9.78125 1.92188 10.0176 2.13672 10.125 2.26562C10.5977 2.80273 10.9629 3.42578 11.1992 4.11328C11.2637 4.28516 11.3281 4.58594 11.1348 4.86523C11.0918 4.95117 11.0273 5.01562 10.9629 5.08008L10.3613 5.68164C10.2539 5.76758 10.2539 6.00391 10.3613 6.08984L10.9629 6.69141C11.0273 6.75586 11.0918 6.82031 11.1348 6.90625C11.3066 7.18555 11.2422 7.48633 11.1992 7.6582C10.9629 8.3457 10.5977 8.96875 10.125 9.50586C10.0176 9.63477 9.78125 9.84961 9.4375 9.84961C9.35156 9.84961 9.26562 9.82812 9.17969 9.80664L8.36328 9.54883C8.23438 9.52734 8.01953 9.63477 7.99805 9.76367L7.7832 10.6016C7.76172 10.6875 7.74023 10.7734 7.69727 10.8594C7.52539 11.1602 7.22461 11.2461 7.05273 11.2891C6.70898 11.3535 6.36523 11.375 6 11.375C5.63477 11.375 5.26953 11.3535 4.92578 11.2891C4.75391 11.2461 4.45312 11.1602 4.28125 10.8594C4.23828 10.7734 4.2168 10.6875 4.19531 10.6016L3.98047 9.76367C3.95898 9.63477 3.74414 9.52734 3.63672 9.54883L2.82031 9.80664C2.73438 9.82812 2.62695 9.82812 2.54102 9.84961C2.19727 9.84961 1.96094 9.63477 1.85352 9.50586C1.38086 8.96875 1.01562 8.3457 0.779297 7.6582C0.736328 7.48633 0.671875 7.18555 0.84375 6.88477C0.886719 6.82031 0.951172 6.73438 1.01562 6.66992L1.63867 6.08984C1.72461 6.00391 1.72461 5.76758 1.63867 5.68164L1.01562 5.08008C0.951172 5.01562 0.886719 4.95117 0.84375 4.86523C0.671875 4.58594 0.736328 4.28516 0.779297 4.11328C1.01562 3.42578 1.38086 2.80273 1.85352 2.26562C1.96094 2.13672 2.19727 1.92188 2.54102 1.92188C2.62695 1.92188 2.73438 1.94336 2.82031 1.96484L3.63672 2.20117C3.74414 2.24414 3.95898 2.11523 3.98047 2.00781L4.19531 1.16992C4.2168 1.08398 4.23828 0.998047 4.28125 0.912109C4.45312 0.611328 4.75391 0.525391 4.92578 0.482422C5.26953 0.417969 5.63477 0.375 6 0.375ZM5.18359 1.49219L4.99023 2.24414C4.81836 2.93164 4.02344 3.4043 3.33594 3.21094L2.58398 2.97461C2.24023 3.4043 1.96094 3.87695 1.76758 4.39258L2.34766 4.92969C2.86328 5.42383 2.86328 6.34766 2.34766 6.8418L1.76758 7.37891C1.96094 7.89453 2.24023 8.36719 2.58398 8.79688L3.33594 8.56055C4.02344 8.36719 4.81836 8.83984 4.99023 9.52734L5.18359 10.2793C5.69922 10.3867 6.2793 10.3867 6.81641 10.2793L6.98828 9.52734C7.16016 8.83984 7.95508 8.36719 8.64258 8.56055L9.39453 8.79688C9.73828 8.36719 10.0176 7.89453 10.2109 7.37891L9.65234 6.8418C9.13672 6.34766 9.13672 5.42383 9.65234 4.92969L10.2109 4.39258C10.0176 3.87695 9.73828 3.4043 9.39453 2.97461L8.64258 3.21094C7.97656 3.4043 7.16016 2.93164 6.98828 2.24414L6.81641 1.49219C6.2793 1.38477 5.69922 1.38477 5.18359 1.49219ZM4.96875 5.875C4.96875 6.26172 5.16211 6.58398 5.48438 6.77734C5.78516 6.9707 6.19336 6.9707 6.51562 6.77734C6.81641 6.58398 7.03125 6.26172 7.03125 5.875C7.03125 5.50977 6.81641 5.1875 6.51562 4.99414C6.19336 4.80078 5.78516 4.80078 5.48438 4.99414C5.16211 5.1875 4.96875 5.50977 4.96875 5.875ZM6 7.9375C5.24805 7.9375 4.58203 7.55078 4.19531 6.90625C3.83008 6.2832 3.83008 5.48828 4.19531 4.84375C4.58203 4.2207 5.24805 3.8125 6 3.8125C6.73047 3.8125 7.39648 4.2207 7.7832 4.84375C8.14844 5.48828 8.14844 6.2832 7.7832 6.90625C7.39648 7.55078 6.73047 7.9375 6 7.9375Z" fill="#666666"/>
</g>
</g>
<defs>
<clipPath id="clip0_4436_2110">
<rect width="12" height="12" fill="white"/>
</clipPath>
<clipPath id="clip1_4436_2110">
<rect width="12" height="12" fill="white"/>
</clipPath>
</defs>
</svg>
