<svg width="12" height="12" viewBox="0 0 12 12" fill="none" xmlns="http://www.w3.org/2000/svg">
<g clip-path="url(#clip0_3035_959)">
<g clip-path="url(#clip1_3035_959)">
<path d="M9.4375 7.59375C9.60938 7.59375 9.78125 7.44336 9.78125 7.25V2.86719L8.32031 1.40625H5.3125C5.11914 1.40625 4.96875 1.57812 4.96875 1.75V7.25C4.96875 7.44336 5.11914 7.59375 5.3125 7.59375H9.4375ZM5.3125 8.625C4.53906 8.625 3.9375 8.02344 3.9375 7.25V1.75C3.9375 0.998047 4.53906 0.375 5.3125 0.375H8.32031C8.57812 0.375 8.85742 0.503906 9.05078 0.697266L10.4902 2.13672C10.6836 2.33008 10.8125 2.60938 10.8125 2.86719V7.25C10.8125 8.02344 10.1895 8.625 9.4375 8.625H5.3125ZM2.5625 3.125H3.25V4.15625H2.5625C2.36914 4.15625 2.21875 4.32812 2.21875 4.5V10C2.21875 10.1934 2.36914 10.3438 2.5625 10.3438H6.6875C6.85938 10.3438 7.03125 10.1934 7.03125 10V9.3125H8.0625V10C8.0625 10.7734 7.43945 11.375 6.6875 11.375H2.5625C1.78906 11.375 1.1875 10.7734 1.1875 10V4.5C1.1875 3.74805 1.78906 3.125 2.5625 3.125Z" fill="black"/>
</g>
</g>
<defs>
<clipPath id="clip0_3035_959">
<rect width="12" height="12" fill="white"/>
</clipPath>
<clipPath id="clip1_3035_959">
<rect width="12" height="12" fill="white"/>
</clipPath>
</defs>
</svg>
