<svg width="12" height="12" viewBox="0 0 12 12" fill="none" xmlns="http://www.w3.org/2000/svg">
<g clip-path="url(#clip0_3192_1697)">
<path d="M7.43945 10.6445C6.62305 10.8809 5.76367 10.3867 5.52734 9.57031L5.41992 9.14062C5.33398 8.86133 5.18359 8.60352 4.99023 8.38867L3.89453 7.18555C3.70117 6.9707 3.72266 6.64844 3.91602 6.45508C4.13086 6.26172 4.45312 6.2832 4.64648 6.49805L5.76367 7.70117C6.06445 8.02344 6.2793 8.43164 6.4082 8.86133L6.51562 9.29102C6.60156 9.57031 6.88086 9.7207 7.16016 9.65625C7.43945 9.57031 7.58984 9.29102 7.52539 9.01172L7.39648 8.58203C7.26758 8.15234 7.07422 7.74414 6.81641 7.37891C6.70898 7.22852 6.70898 7.01367 6.79492 6.8418C6.88086 6.66992 7.05273 6.5625 7.24609 6.5625H10.125C10.2969 6.5625 10.4688 6.41211 10.4688 6.21875C10.4688 6.08984 10.3613 5.96094 10.2324 5.89648C10.082 5.85352 9.95312 5.70312 9.91016 5.55273C9.86719 5.38086 9.91016 5.20898 10.0391 5.08008C10.082 5.01562 10.125 4.95117 10.125 4.84375C10.125 4.69336 9.99609 4.54297 9.8457 4.52148C9.65234 4.47852 9.50195 4.34961 9.45898 4.19922C9.39453 4.02734 9.41602 3.83398 9.52344 3.68359C9.56641 3.64062 9.60938 3.55469 9.60938 3.46875C9.60938 3.33984 9.50195 3.21094 9.37305 3.14648C9.13672 3.06055 9.00781 2.80273 9.07227 2.54492C9.07227 2.50195 9.09375 2.48047 9.09375 2.4375C9.09375 2.26562 8.92188 2.09375 8.75 2.09375H6.64453C6.36523 2.09375 6.10742 2.17969 5.89258 2.33008L4.56055 3.21094C4.32422 3.38281 4.00195 3.31836 3.85156 3.06055C3.67969 2.82422 3.74414 2.52344 3.98047 2.35156L5.3125 1.4707C5.69922 1.21289 6.17188 1.0625 6.64453 1.0625H8.75C9.48047 1.0625 10.082 1.66406 10.125 2.39453C10.4258 2.65234 10.6406 3.03906 10.6406 3.46875C10.6406 3.57617 10.6191 3.66211 10.5977 3.74805C10.9414 4.00586 11.1562 4.39258 11.1562 4.84375C11.1562 4.99414 11.1348 5.12305 11.0918 5.25195C11.3281 5.50977 11.5 5.85352 11.5 6.21875C11.5 6.99219 10.877 7.59375 10.125 7.59375H8.12695C8.23438 7.83008 8.32031 8.06641 8.38477 8.30273L8.51367 8.73242C8.75 9.54883 8.27734 10.4082 7.43945 10.6445ZM1.1875 8.625C0.800781 8.625 0.5 8.32422 0.5 7.9375V3.125C0.5 2.75977 0.800781 2.4375 1.1875 2.4375H2.5625C2.92773 2.4375 3.25 2.75977 3.25 3.125V7.9375C3.25 8.32422 2.92773 8.625 2.5625 8.625H1.1875Z" fill="#666666"/>
</g>
<defs>
<clipPath id="clip0_3192_1697">
<rect width="12" height="12" fill="white"/>
</clipPath>
</defs>
</svg>
