<svg width="16" height="16" viewBox="0 0 16 16" fill="none" xmlns="http://www.w3.org/2000/svg">
<path d="M8 14C5.84375 14 3.875 12.875 2.79688 11C1.71875 9.14844 1.71875 6.875 2.79688 5C3.875 3.14844 5.84375 2 8 2C10.1328 2 12.1016 3.14844 13.1797 5C14.2578 6.875 14.2578 9.14844 13.1797 11C12.1016 12.875 10.1328 14 8 14ZM8 5C7.67188 5 7.4375 5.25781 7.4375 5.5625V8.1875C7.4375 8.51562 7.67188 8.75 8 8.75C8.30469 8.75 8.5625 8.51562 8.5625 8.1875V5.5625C8.5625 5.25781 8.30469 5 8 5ZM7.25 10.25C7.25 10.6719 7.57812 11 8 11C8.39844 11 8.75 10.6719 8.75 10.25C8.75 9.85156 8.39844 9.5 8 9.5C7.57812 9.5 7.25 9.85156 7.25 10.25Z" fill="#DD334D"/>
</svg>
