<svg width="10" height="10" viewBox="0 0 10 10" fill="none" xmlns="http://www.w3.org/2000/svg">
<path d="M5 9.5C3.38281 9.5 1.90625 8.65625 1.09766 7.25C0.289062 5.86133 0.289062 4.15625 1.09766 2.75C1.90625 1.36133 3.38281 0.5 5 0.5C6.59961 0.5 8.07617 1.36133 8.88477 2.75C9.69336 4.15625 9.69336 5.86133 8.88477 7.25C8.07617 8.65625 6.59961 9.5 5 9.5ZM5 2.75C4.75391 2.75 4.57812 2.94336 4.57812 3.17188V5.14062C4.57812 5.38672 4.75391 5.5625 5 5.5625C5.22852 5.5625 5.42188 5.38672 5.42188 5.14062V3.17188C5.42188 2.94336 5.22852 2.75 5 2.75ZM4.4375 6.6875C4.4375 7.00391 4.68359 7.25 5 7.25C5.29883 7.25 5.5625 7.00391 5.5625 6.6875C5.5625 6.38867 5.29883 6.125 5 6.125C4.68359 6.125 4.4375 6.38867 4.4375 6.6875Z" fill="#DD334D"/>
</svg>
