<svg width="14" height="16" viewBox="0 0 14 16" fill="none" xmlns="http://www.w3.org/2000/svg">
<g clip-path="url(#clip0_2359_13207)">
<path d="M7.07383 0.00170898C3.16411 0.00170898 0 3.14773 0 7.03513C0 10.4578 2.4675 13.3016 5.72387 13.9343V15.9477C9.95739 15.3131 13.7059 11.9717 13.9857 7.58545C14.154 4.94529 12.8301 2.25004 10.5972 0.941266C10.4694 0.866381 10.3395 0.791984 10.2057 0.726535C10.0694 0.659838 9.9295 0.594876 9.78726 0.538591C9.74209 0.519829 9.69784 0.502802 9.65223 0.484908C9.52804 0.439359 9.4027 0.388008 9.27429 0.350701C8.58206 0.123878 7.84213 0.00170898 7.07383 0.00170898Z" fill="#00A818"/>
<path d="M8.53932 2.60063C8.29689 2.57591 8.04156 2.65979 7.863 2.86959C7.73312 3.04181 7.65197 3.20855 7.5654 3.38071C7.30563 3.98326 7.39225 4.62886 7.78185 5.10236C8.38784 4.97319 8.90185 4.58852 9.16161 3.98597C9.24818 3.81381 9.29686 3.59322 9.29686 3.42106C9.32393 2.96378 8.94347 2.64184 8.53932 2.60063ZM5.38752 2.64098C4.99229 2.67839 4.61648 2.99073 4.61648 3.42106C4.61648 3.59322 4.66515 3.81381 4.75178 3.98597C5.01149 4.58852 5.56607 4.97319 6.17212 5.1023C6.5184 4.62892 6.60765 3.98326 6.34794 3.38071C6.26137 3.20855 6.18022 3.0391 6.05033 2.90999C5.87178 2.70014 5.6247 2.61847 5.38752 2.64098ZM3.26384 4.71232C2.58123 4.74713 2.27635 5.59998 2.8445 6.04387C3.01764 6.17292 3.18536 6.26711 3.35856 6.35322C3.9645 6.61144 4.66521 6.52267 5.18468 6.17834C5.0548 5.61885 4.61386 5.10507 4.00781 4.84679C3.79136 4.76074 3.61554 4.71232 3.39914 4.71232C3.35041 4.70689 3.30934 4.70999 3.26384 4.71232ZM9.93271 7.32162C9.53622 7.31403 9.1346 7.42921 8.80997 7.64437C8.9398 8.20392 9.3808 8.7177 9.98685 8.97592C10.2032 9.06198 10.3791 9.1104 10.5955 9.1104C11.3747 9.15345 11.7562 8.19584 11.1502 7.76546C10.977 7.63629 10.8092 7.5556 10.6361 7.46955C10.4089 7.3727 10.1706 7.32612 9.93271 7.32157V7.32162ZM4.02132 7.36191C3.78343 7.36647 3.54521 7.41305 3.31793 7.50989C3.10147 7.59595 2.93375 7.69014 2.80386 7.81925C2.24113 8.29263 2.61995 9.19385 3.39908 9.15074C3.61554 9.15074 3.83467 9.10237 4.00781 9.01626C4.61386 8.75804 5.04397 8.24426 5.13054 7.68471C4.80266 7.46745 4.41561 7.35481 4.02132 7.36191ZM6.21275 8.68001C5.60671 8.80912 5.0927 9.1938 4.83299 9.79634C4.74642 9.96851 4.69769 10.1756 4.69769 10.3478C4.65443 11.0795 5.65811 11.4722 6.09102 10.9127C6.22085 10.7405 6.302 10.5738 6.38857 10.4016C6.64834 9.84211 6.55904 9.19651 6.21275 8.68001ZM7.82248 8.72036C7.47614 9.1938 7.3869 9.8394 7.64661 10.442C7.73318 10.6141 7.81433 10.7836 7.94422 10.9127C8.42038 11.4292 9.42132 11.0472 9.37812 10.4016C9.37812 10.2294 9.32939 10.0089 9.24282 9.83669C8.98306 9.23414 8.42853 8.84947 7.82248 8.72036Z" fill="white"/>
</g>
<defs>
<clipPath id="clip0_2359_13207">
<rect width="14" height="16" fill="white"/>
</clipPath>
</defs>
</svg>
