<svg width="40" height="46" viewBox="0 0 40 46" fill="none" xmlns="http://www.w3.org/2000/svg">
<path d="M0 6.34175C0 3.32929 2.44208 0.887207 5.45455 0.887207H34.5455C37.5579 0.887207 40 3.32929 40 6.34175V35.4327C40 39.3872 38.5 40.8872 34.5455 40.8872H28.5H23.5H19H5.45455C2.44208 40.8872 0 38.4451 0 35.4327V6.34175Z" fill="#F0F2F2"/>
<path d="M0 6.20406C0 3.19159 2.44208 0.749512 5.45455 0.749512H34.5455C37.5579 0.749512 40 3.19159 40 6.20406V35.295C40 39.2495 38.5 40.7495 34.5455 40.7495H28.5V43.6701C28.5 44.4043 27.7353 44.8882 27.0718 44.5738L19 40.7495H5.45455C2.44208 40.7495 0 38.3074 0 35.295V6.20406Z" fill="#F0F2F2"/>
<path fill-rule="evenodd" clip-rule="evenodd" d="M24.6117 25.9028C24.8347 25.4566 25.3773 25.2758 25.8234 25.4989L33.0491 29.1116C33.3551 29.2646 33.5484 29.5773 33.5484 29.9194C33.5484 30.2616 33.3551 30.5743 33.0491 30.7273L25.8234 34.34C25.3773 34.5631 24.8347 34.3823 24.6117 33.9361C24.3886 33.49 24.5694 32.9474 25.0156 32.7244L30.6255 29.9194L25.0156 27.1145C24.5694 26.8915 24.3886 26.3489 24.6117 25.9028Z" fill="#595959"/>
<path fill-rule="evenodd" clip-rule="evenodd" d="M15.3883 33.9361C15.1653 34.3822 14.6227 34.5631 14.1766 34.34L6.95091 30.7273C6.64492 30.5743 6.45163 30.2615 6.45163 29.9194C6.45163 29.5773 6.64492 29.2646 6.95091 29.1116L14.1766 25.4988C14.6227 25.2758 15.1653 25.4566 15.3883 25.9028C15.6114 26.3489 15.4306 26.8914 14.9844 27.1145L9.37447 29.9194L14.9844 32.7243C15.4306 32.9474 15.6114 33.4899 15.3883 33.9361Z" fill="#595959"/>
<path fill-rule="evenodd" clip-rule="evenodd" d="M17.6529 35.5889C17.1718 35.4454 16.898 34.9391 17.0415 34.4579L20.565 22.6411C20.7085 22.1599 21.2148 21.8862 21.696 22.0297C22.1771 22.1731 22.4509 22.6795 22.3074 23.1606L18.7839 34.9774C18.6404 35.4586 18.1341 35.7323 17.6529 35.5889Z" fill="#595959"/>
<path d="M9.02114 18.0034C8.84476 18.5688 8.33939 18.9516 7.76922 18.9516V18.9516C6.86473 18.9516 6.22963 18.0223 6.52479 17.1307L9.64356 7.70955C9.97267 6.7154 10.8702 6.04834 11.8787 6.04834V6.04834C12.8876 6.04834 13.7854 6.71589 14.1142 7.71056L17.2284 17.1311C17.5231 18.0227 16.888 18.9516 15.9837 18.9516V18.9516C15.4131 18.9516 14.9076 18.5684 14.7314 18.0026L11.9424 9.04488C11.9335 9.01629 11.9079 8.99693 11.8791 8.99693V8.99693C11.8503 8.99693 11.8248 9.01627 11.8158 9.04485L9.02114 18.0034ZM8.55015 14.9445C8.55015 14.3565 9.00729 13.8797 9.57119 13.8797H14.1508C14.7147 13.8797 15.1719 14.3565 15.1719 14.9445V14.9445C15.1719 15.5326 14.7147 16.0093 14.1508 16.0093H9.57119C9.00729 16.0093 8.55015 15.5326 8.55015 14.9445V14.9445Z" fill="#6AB633"/>
<path d="M20.6275 6.04834C21.3499 6.04834 21.9355 6.65904 21.9355 7.41238V17.5875C21.9355 18.3409 21.3499 18.9516 20.6275 18.9516V18.9516C19.9051 18.9516 19.3195 18.3409 19.3195 17.5875V7.41238C19.3195 6.65904 19.9051 6.04834 20.6275 6.04834V6.04834Z" fill="#6AB633"/>
</svg>
