<svg width="16" height="16" viewBox="0 0 16 16" fill="none" xmlns="http://www.w3.org/2000/svg">
<g clip-path="url(#clip0_2056_30152)">
<rect width="16" height="16" fill="white"/>
<path d="M15 15V16H1V15H15ZM15 4H1V16L0.897461 15.9951C0.427034 15.9472 0.0527828 15.573 0.00488281 15.1025L0 15V4C0 3.48232 0.393331 3.05621 0.897461 3.00488L1 3H15L15.1025 3.00488C15.6067 3.05621 16 3.48232 16 4V15L15.9951 15.1025C15.9472 15.573 15.573 15.9472 15.1025 15.9951L15 16V4Z" fill="#595959"/>
<path d="M0 1C0 0.447715 0.447715 0 1 0H15C15.5523 0 16 0.447715 16 1V5H0V1Z" fill="#76BF42"/>
<path d="M1 1V4H15V1H1ZM16 5H0V1C0 0.482323 0.393331 0.0562144 0.897461 0.00488281L1 0H15L15.1025 0.00488281C15.6067 0.0562144 16 0.482323 16 1V5Z" fill="#595959"/>
<path d="M3 2.5C3 2.77614 2.77614 3 2.5 3C2.22386 3 2 2.77614 2 2.5C2 2.22386 2.22386 2 2.5 2C2.77614 2 3 2.22386 3 2.5Z" fill="#595959"/>
<path d="M5 2.5C5 2.77614 4.77614 3 4.5 3C4.22386 3 4 2.77614 4 2.5C4 2.22386 4.22386 2 4.5 2C4.77614 2 5 2.22386 5 2.5Z" fill="#595959"/>
<path d="M7 2.5C7 2.77614 6.77614 3 6.5 3C6.22386 3 6 2.77614 6 2.5C6 2.22386 6.22386 2 6.5 2C6.77614 2 7 2.22386 7 2.5Z" fill="#595959"/>
<path fill-rule="evenodd" clip-rule="evenodd" d="M10.1484 8.08861C9.99971 7.93989 9.99971 7.69878 10.1484 7.55006C10.2971 7.40135 10.5383 7.40135 10.687 7.55006L12.8901 9.75321C13.0388 9.90193 13.0388 10.143 12.8901 10.2918C12.7414 10.4405 12.5003 10.4405 12.3516 10.2918L10.1484 8.08861Z" fill="#595959"/>
<path d="M10.1485 7.55003C10.2972 7.40135 10.5384 7.40132 10.6871 7.55003L12.8899 9.75283C13.0386 9.90154 13.0386 10.1427 12.8899 10.2914C12.7412 10.4402 12.5 10.4402 12.3513 10.2914L10.1485 8.08864C9.99974 7.93993 9.99974 7.69874 10.1485 7.55003Z" fill="#595959"/>
<path fill-rule="evenodd" clip-rule="evenodd" d="M12.8323 10.3287C12.981 10.18 12.981 9.93889 12.8323 9.79017C12.6836 9.64146 12.4425 9.64146 12.2937 9.79017L10.0906 11.9933C9.94188 12.142 9.94188 12.3832 10.0906 12.5319C10.2393 12.6806 10.4804 12.6806 10.6291 12.5319L12.8323 10.3287Z" fill="#595959"/>
<path d="M12.8323 9.79014C12.6835 9.64146 12.4423 9.64144 12.2936 9.79014L10.0908 11.9929C9.94213 12.1416 9.94215 12.3828 10.0908 12.5316C10.2396 12.6803 10.4807 12.6803 10.6295 12.5316L12.8323 10.3288C12.981 10.18 12.981 9.93886 12.8323 9.79014Z" fill="#595959"/>
<path fill-rule="evenodd" clip-rule="evenodd" d="M5.87575 8.08861C6.02446 7.93989 6.02446 7.69878 5.87575 7.55006C5.72703 7.40135 5.48591 7.40135 5.3372 7.55006L3.13405 9.75321C2.98533 9.90193 2.98533 10.143 3.13405 10.2918C3.28277 10.4405 3.52388 10.4405 3.6726 10.2918L5.87575 8.08861Z" fill="#595959"/>
<path d="M5.87571 7.55003C5.72699 7.40135 5.4858 7.40132 5.33709 7.55003L3.13429 9.75283C2.98559 9.90154 2.98561 10.1427 3.13429 10.2914C3.28301 10.4402 3.52419 10.4402 3.67291 10.2914L5.87571 8.08864C6.02443 7.93993 6.02443 7.69874 5.87571 7.55003Z" fill="#595959"/>
<path fill-rule="evenodd" clip-rule="evenodd" d="M3.19188 10.3287C3.04317 10.18 3.04317 9.93889 3.19188 9.79017C3.3406 9.64146 3.58171 9.64146 3.73043 9.79017L5.93358 11.9933C6.08229 12.142 6.08229 12.3832 5.93358 12.5319C5.78486 12.6806 5.54375 12.6806 5.39503 12.5319L3.19188 10.3287Z" fill="#595959"/>
<path d="M3.19192 9.79014C3.34063 9.64146 3.58183 9.64144 3.73053 9.79014L5.93334 11.9929C6.08204 12.1416 6.08202 12.3828 5.93334 12.5316C5.78462 12.6803 5.54343 12.6803 5.39472 12.5316L3.19192 10.3288C3.0432 10.18 3.0432 9.93886 3.19192 9.79014Z" fill="#595959"/>
<path fill-rule="evenodd" clip-rule="evenodd" d="M9.40334 7.09091C9.46131 6.88874 9.34441 6.67786 9.14224 6.61989C8.94007 6.56192 8.72919 6.67881 8.67122 6.88098L6.95742 12.8577C6.89944 13.0599 7.01634 13.2708 7.21851 13.3287C7.42068 13.3867 7.63156 13.2698 7.68953 13.0677L9.40334 7.09091Z" fill="#595959"/>
<path d="M9.1422 6.61987C8.94004 6.56194 8.72908 6.67885 8.67111 6.881L6.95726 12.8579C6.89944 13.06 7.01632 13.271 7.21839 13.329C7.42048 13.3869 7.63141 13.2699 7.68947 13.0679L9.40332 7.09096C9.46129 6.88879 9.34436 6.67785 9.1422 6.61987Z" fill="#595959"/>
</g>
<defs>
<clipPath id="clip0_2056_30152">
<rect width="16" height="16" fill="white"/>
</clipPath>
</defs>
</svg>
