<svg width="12" height="12" viewBox="0 0 12 12" fill="none" xmlns="http://www.w3.org/2000/svg">
<g clip-path="url(#clip0_3192_1692)">
<path d="M7.43945 1.12695C8.27734 1.36328 8.75 2.22266 8.51367 3.03906L8.38477 3.46875C8.32031 3.70508 8.23438 3.94141 8.12695 4.15625H10.125C10.877 4.15625 11.5 4.7793 11.5 5.53125C11.5 5.91797 11.3281 6.26172 11.0918 6.51953C11.1348 6.64844 11.1562 6.77734 11.1562 6.92773C11.1562 7.35742 10.9414 7.76562 10.5977 8.02344C10.6191 8.10938 10.6406 8.19531 10.6406 8.30273C10.6406 8.73242 10.4258 9.11914 10.125 9.37695C10.082 10.1074 9.48047 10.709 8.75 10.709H6.64453C6.17188 10.709 5.69922 10.5586 5.3125 10.3008L3.98047 9.41992C3.74414 9.24805 3.67969 8.94727 3.85156 8.68945C4.00195 8.45312 4.32422 8.38867 4.56055 8.56055L5.89258 9.44141C6.10742 9.5918 6.36523 9.67773 6.64453 9.67773H8.75C8.92188 9.67773 9.09375 9.50586 9.09375 9.33398C9.09375 9.29102 9.07227 9.26953 9.07227 9.22656C9.00781 8.96875 9.13672 8.71094 9.37305 8.60352C9.50195 8.56055 9.60938 8.43164 9.60938 8.30273C9.60938 8.2168 9.56641 8.13086 9.52344 8.08789C9.41602 7.9375 9.39453 7.74414 9.45898 7.57227C9.50195 7.40039 9.65234 7.29297 9.8457 7.25C9.99609 7.22852 10.125 7.07812 10.125 6.90625C10.125 6.82031 10.082 6.75586 10.0391 6.69141C9.91016 6.5625 9.86719 6.39062 9.91016 6.21875C9.95312 6.04688 10.082 5.91797 10.2324 5.85352C10.3613 5.81055 10.4688 5.68164 10.4688 5.53125C10.4688 5.35938 10.2969 5.1875 10.125 5.1875H7.24609C7.05273 5.1875 6.88086 5.08008 6.79492 4.9082C6.70898 4.73633 6.70898 4.54297 6.81641 4.39258C7.07422 4.02734 7.26758 3.61914 7.39648 3.18945L7.52539 2.75977C7.58984 2.48047 7.43945 2.20117 7.16016 2.11523C6.88086 2.05078 6.60156 2.20117 6.51562 2.48047L6.4082 2.91016C6.2793 3.33984 6.06445 3.72656 5.76367 4.07031L4.64648 5.27344C4.45312 5.48828 4.13086 5.50977 3.91602 5.31641C3.72266 5.12305 3.70117 4.80078 3.89453 4.58594L4.99023 3.38281C5.18359 3.16797 5.33398 2.91016 5.41992 2.63086L5.52734 2.20117C5.76367 1.36328 6.62305 0.890625 7.43945 1.12695ZM1.1875 4.5H2.5625C2.92773 4.5 3.25 4.82227 3.25 5.1875V10C3.25 10.3867 2.92773 10.6875 2.5625 10.6875H1.1875C0.800781 10.6875 0.5 10.3867 0.5 10V5.1875C0.5 4.82227 0.800781 4.5 1.1875 4.5Z" fill="#666666"/>
</g>
<defs>
<clipPath id="clip0_3192_1692">
<rect width="12" height="12" fill="white"/>
</clipPath>
</defs>
</svg>
