<svg width="16" height="16" viewBox="0 0 16 16" fill="none" xmlns="http://www.w3.org/2000/svg">
<path fill-rule="evenodd" clip-rule="evenodd" d="M3 2H13C13.5523 2 14 2.44772 14 3V13C14 13.5523 13.5523 14 13 14H3C2.44772 14 2 13.5523 2 13V3C2 2.44772 2.44772 2 3 2ZM1 3C1 1.89543 1.89543 1 3 1H13C14.1046 1 15 1.89543 15 3V13C15 14.1046 14.1046 15 13 15H3C1.89543 15 1 14.1046 1 13V3ZM4.69946 4.00858C4.41849 4.00858 4.19995 4.24976 4.19995 4.52311C4.19995 4.81253 4.41849 5.03764 4.69946 5.03764H11.196C11.4614 5.03764 11.6956 4.81253 11.6956 4.52311C11.6956 4.24976 11.4614 4.00858 11.196 4.00858H4.69946ZM4.69946 6.95332C4.41849 6.95332 4.19995 7.19451 4.19995 7.46785C4.19995 7.75727 4.41849 7.98238 4.69946 7.98238H11.196C11.4614 7.98238 11.6956 7.75727 11.6956 7.46785C11.6956 7.19451 11.4614 6.95332 11.196 6.95332H4.69946Z" fill="#666666"/>
</svg>
