<svg width="16" height="16" viewBox="0 0 16 16" fill="none" xmlns="http://www.w3.org/2000/svg">
<path d="M12.3435 13.5044V14.5044H7.34351V13.5044H12.3435ZM13.3435 12.5044V5.50439C13.3435 4.95211 12.8958 4.50439 12.3435 4.50439H7.34351C6.79122 4.50439 6.34351 4.95211 6.34351 5.50439V12.5044C6.34351 13.0567 6.79122 13.5044 7.34351 13.5044V14.5044L7.1394 14.4937C6.19785 14.3982 5.44971 13.65 5.35425 12.7085L5.34351 12.5044V5.50439C5.34351 4.46874 6.13073 3.6174 7.1394 3.51514L7.34351 3.50439H12.3435L12.5476 3.51514C13.5563 3.6174 14.3435 4.46874 14.3435 5.50439V12.5044L14.3328 12.7085C14.2373 13.65 13.4892 14.3982 12.5476 14.4937L12.3435 14.5044V13.5044C12.8958 13.5044 13.3435 13.0567 13.3435 12.5044Z" fill="#4CAF50"/>
<path d="M2.5 10.5004V3.26794C2.5 1.88723 3.61929 0.767944 5 0.767944H11C11.2761 0.767944 11.5 0.991802 11.5 1.26794C11.5 1.54409 11.2761 1.76794 11 1.76794H5C4.17157 1.76794 3.5 2.43952 3.5 3.26794V10.5004C3.4998 10.7763 3.27602 11.0004 3 11.0004C2.72398 11.0004 2.5002 10.7763 2.5 10.5004Z" fill="#4CAF50"/>
</svg>
