<svg width="12" height="12" viewBox="0 0 12 12" fill="none" xmlns="http://www.w3.org/2000/svg">
<g clip-path="url(#clip0_1975_7961)">
<g clip-path="url(#clip1_1975_7961)">
<path d="M10.875 5.25C10.875 5.0625 10.6875 4.875 10.5 4.875H1.5C1.28906 4.875 1.125 5.0625 1.125 5.25V10.5C1.125 10.7109 1.28906 10.875 1.5 10.875H10.5C10.6875 10.875 10.875 10.7109 10.875 10.5V5.25ZM10.5 3.75C11.3203 3.75 12 4.42969 12 5.25V10.5C12 11.3438 11.3203 12 10.5 12H1.5C0.65625 12 0 11.3438 0 10.5V5.25C0 4.42969 0.65625 3.75 1.5 3.75H10.5ZM10.3125 1.875C10.6172 1.875 10.875 2.13281 10.875 2.4375C10.875 2.76562 10.6172 3 10.3125 3H1.6875C1.35938 3 1.125 2.76562 1.125 2.4375C1.125 2.13281 1.35938 1.875 1.6875 1.875H10.3125ZM9.1875 0C9.49219 0 9.75 0.257812 9.75 0.5625C9.75 0.890625 9.49219 1.125 9.1875 1.125H2.8125C2.48438 1.125 2.25 0.890625 2.25 0.5625C2.25 0.257812 2.48438 0 2.8125 0H9.1875Z" fill="#666666"/>
</g>
</g>
<defs>
<clipPath id="clip0_1975_7961">
<rect width="12" height="12" fill="white"/>
</clipPath>
<clipPath id="clip1_1975_7961">
<rect width="12" height="12" fill="white"/>
</clipPath>
</defs>
</svg>