<svg width="12" height="10" viewBox="0 0 12 10" fill="none" xmlns="http://www.w3.org/2000/svg">
<path d="M9.48047 3.41406C8.90039 2.06055 7.54688 1.09375 6 1.09375C5.14062 1.09375 4.32422 1.4375 3.72266 2.03906L2.58398 3.15625H3.76562C4.04492 3.15625 4.28125 3.39258 4.28125 3.67188C4.28125 3.97266 4.04492 4.1875 3.76562 4.1875H1.35938C1.05859 4.1875 0.84375 3.97266 0.84375 3.67188V1.26562C0.84375 0.986328 1.05859 0.75 1.35938 0.75C1.63867 0.75 1.875 0.986328 1.875 1.26562V2.44727L2.99219 1.30859C3.78711 0.513672 4.86133 0.0625 6 0.0625C7.97656 0.0625 9.69531 1.28711 10.4258 3.00586C10.5332 3.26367 10.4043 3.56445 10.1465 3.67188C9.88867 3.7793 9.58789 3.67188 9.48047 3.41406ZM1.57422 6.78711C1.44531 6.50781 1.57422 6.20703 1.83203 6.09961C2.08984 5.99219 2.39062 6.09961 2.51953 6.37891C3.09961 7.73242 4.43164 8.65625 6 8.65625C6.83789 8.65625 7.6543 8.33398 8.25586 7.73242L9.39453 6.59375H8.23438C7.93359 6.59375 7.71875 6.37891 7.71875 6.07812C7.71875 5.79883 7.93359 5.5625 8.23438 5.5625H10.6406C10.9199 5.5625 11.1562 5.79883 11.1562 6.07812V8.48438C11.1562 8.78516 10.9199 9 10.6406 9C10.3398 9 10.125 8.78516 10.125 8.48438V7.32422L8.98633 8.44141C8.19141 9.25781 7.11719 9.6875 6 9.6875C4.00195 9.6875 2.30469 8.48438 1.57422 6.78711Z" fill="#666666"/>
</svg>
