<svg width="12" height="12" viewBox="0 0 12 12" fill="none" xmlns="http://www.w3.org/2000/svg">
<g clip-path="url(#clip0_3260_2259)">
<path d="M9.48047 4.41406C8.90039 3.06055 7.54688 2.09375 6 2.09375C5.14062 2.09375 4.32422 2.4375 3.72266 3.03906L2.58398 4.15625H3.76562C4.04492 4.15625 4.28125 4.39258 4.28125 4.67188C4.28125 4.97266 4.04492 5.1875 3.76562 5.1875H1.35938C1.05859 5.1875 0.84375 4.97266 0.84375 4.67188V2.26562C0.84375 1.98633 1.05859 1.75 1.35938 1.75C1.63867 1.75 1.875 1.98633 1.875 2.26562V3.44727L2.99219 2.30859C3.78711 1.51367 4.86133 1.0625 6 1.0625C7.97656 1.0625 9.69531 2.28711 10.4258 4.00586C10.5332 4.26367 10.4043 4.56445 10.1465 4.67188C9.88867 4.7793 9.58789 4.67188 9.48047 4.41406ZM1.57422 7.78711C1.44531 7.50781 1.57422 7.20703 1.83203 7.09961C2.08984 6.99219 2.39062 7.09961 2.51953 7.37891C3.09961 8.73242 4.43164 9.65625 6 9.65625C6.83789 9.65625 7.6543 9.33398 8.25586 8.73242L9.39453 7.59375H8.23438C7.93359 7.59375 7.71875 7.37891 7.71875 7.07812C7.71875 6.79883 7.93359 6.5625 8.23438 6.5625H10.6406C10.9199 6.5625 11.1562 6.79883 11.1562 7.07812V9.48438C11.1562 9.78516 10.9199 10 10.6406 10C10.3398 10 10.125 9.78516 10.125 9.48438V8.32422L8.98633 9.44141C8.19141 10.2578 7.11719 10.6875 6 10.6875C4.00195 10.6875 2.30469 9.48438 1.57422 7.78711Z" fill="black"/>
</g>
<defs>
<clipPath id="clip0_3260_2259">
<rect width="12" height="12" fill="white"/>
</clipPath>
</defs>
</svg>
