<svg width="15" height="13" viewBox="0 0 15 13" fill="none" xmlns="http://www.w3.org/2000/svg">
<mask id="path-1-outside-1_3119_19" maskUnits="userSpaceOnUse" x="0" y="0" width="16" height="13" fill="black">
<rect fill="white" width="16" height="13"/>
<path d="M1.08203 1.91016C0.917969 1.58203 0.972656 1.17188 1.21875 0.898438C1.46484 0.652344 1.875 0.570312 2.20312 0.707031L14.4531 5.95703C14.7812 6.09375 15 6.42188 15 6.75C15 7.10547 14.7812 7.43359 14.4531 7.57031L2.20312 12.8203C1.875 12.957 1.46484 12.875 1.21875 12.6016C0.972656 12.3281 0.917969 11.9453 1.08203 11.6172L3.51562 6.75L1.08203 1.91016ZM4.28125 7.1875L1.875 12L13.0859 7.1875H4.28125ZM13.0859 6.3125L1.875 1.5L4.28125 6.3125H13.0859Z"/>
</mask>
<path d="M1.08203 1.91016C0.917969 1.58203 0.972656 1.17188 1.21875 0.898438C1.46484 0.652344 1.875 0.570312 2.20312 0.707031L14.4531 5.95703C14.7812 6.09375 15 6.42188 15 6.75C15 7.10547 14.7812 7.43359 14.4531 7.57031L2.20312 12.8203C1.875 12.957 1.46484 12.875 1.21875 12.6016C0.972656 12.3281 0.917969 11.9453 1.08203 11.6172L3.51562 6.75L1.08203 1.91016ZM4.28125 7.1875L1.875 12L13.0859 7.1875H4.28125ZM13.0859 6.3125L1.875 1.5L4.28125 6.3125H13.0859Z" fill="#5959EB"/>
<path d="M1.08203 1.91016L0.992588 1.95488L0.99269 1.95508L1.08203 1.91016ZM1.21875 0.898438L1.14794 0.827629L1.14442 0.831541L1.21875 0.898438ZM2.20312 0.707031L2.24252 0.615112L2.24159 0.614724L2.20312 0.707031ZM14.4531 5.95703L14.4137 6.04895L14.4147 6.04934L14.4531 5.95703ZM14.4531 7.57031L14.4147 7.478L14.4137 7.4784L14.4531 7.57031ZM2.20312 12.8203L2.24159 12.9126L2.24252 12.9122L2.20312 12.8203ZM3.51562 6.75L3.60507 6.79472L3.62749 6.74987L3.60497 6.70508L3.51562 6.75ZM4.28125 7.1875V7.0875H4.21945L4.19181 7.14278L4.28125 7.1875ZM1.875 12L1.78556 11.9553L1.66336 12.1997L1.91445 12.0919L1.875 12ZM13.0859 7.1875L13.1254 7.27939L13.0859 7.0875V7.1875ZM13.0859 6.3125V6.4125L13.1254 6.22061L13.0859 6.3125ZM1.875 1.5L1.91445 1.40811L1.66336 1.30033L1.78556 1.54472L1.875 1.5ZM4.28125 6.3125L4.19181 6.35722L4.21945 6.4125H4.28125V6.3125ZM1.17147 1.86543C1.02574 1.57397 1.07457 1.20812 1.29308 0.965334L1.14442 0.831541C0.870739 1.13563 0.810194 1.59009 0.992589 1.95488L1.17147 1.86543ZM1.28946 0.969148C1.50671 0.751899 1.87369 0.678102 2.16466 0.799339L2.24159 0.614724C1.87631 0.462523 1.42298 0.552789 1.14804 0.827727L1.28946 0.969148ZM2.16373 0.798946L14.4137 6.04895L14.4925 5.86512L2.24252 0.615117L2.16373 0.798946ZM14.4147 6.04934C14.7072 6.17123 14.9 6.46402 14.9 6.75H15.1C15.1 6.37973 14.8553 6.01627 14.4916 5.86472L14.4147 6.04934ZM14.9 6.75C14.9 7.0651 14.7055 7.35681 14.4147 7.478L14.4916 7.66262C14.857 7.51037 15.1 7.14584 15.1 6.75H14.9ZM14.4137 7.4784L2.16373 12.7284L2.24252 12.9122L14.4925 7.66223L14.4137 7.4784ZM2.16466 12.728C1.87433 12.849 1.50978 12.7754 1.29308 12.5347L1.14442 12.6685C1.4199 12.9746 1.87567 13.0651 2.24159 12.9126L2.16466 12.728ZM1.29308 12.5347C1.074 12.2912 1.02612 11.9526 1.17147 11.6619L0.992589 11.5725C0.809814 11.938 0.871311 12.365 1.14442 12.6685L1.29308 12.5347ZM1.17147 11.6619L3.60507 6.79472L3.42618 6.70528L0.992589 11.5725L1.17147 11.6619ZM3.60497 6.70508L1.17137 1.86523L0.99269 1.95508L3.42628 6.79492L3.60497 6.70508ZM4.19181 7.14278L1.78556 11.9553L1.96444 12.0447L4.37069 7.23222L4.19181 7.14278ZM1.91445 12.0919L13.1254 7.27939L13.0465 7.09561L1.83555 11.9081L1.91445 12.0919ZM13.0859 7.0875H4.28125V7.2875H13.0859V7.0875ZM13.1254 6.22061L1.91445 1.40811L1.83555 1.59189L13.0465 6.40439L13.1254 6.22061ZM1.78556 1.54472L4.19181 6.35722L4.37069 6.26778L1.96444 1.45528L1.78556 1.54472ZM4.28125 6.4125H13.0859V6.2125H4.28125V6.4125Z" fill="#5959EB" mask="url(#path-1-outside-1_3119_19)"/>
</svg>
