<svg width="13" height="12" viewBox="0 0 13 12" fill="none" xmlns="http://www.w3.org/2000/svg">
<g clip-path="url(#clip0_3035_1948)">
<path d="M11.375 6C11.375 4.26562 10.4375 2.67188 8.9375 1.78125C7.41406 0.914062 5.5625 0.914062 4.0625 1.78125C2.53906 2.67188 1.625 4.26562 1.625 6C1.625 7.75781 2.53906 9.35156 4.0625 10.2422C5.5625 11.1094 7.41406 11.1094 8.9375 10.2422C10.4375 9.35156 11.375 7.75781 11.375 6ZM0.5 6C0.5 3.86719 1.625 1.89844 3.5 0.820312C5.35156 -0.257812 7.625 -0.257812 9.5 0.820312C11.3516 1.89844 12.5 3.86719 12.5 6C12.5 8.15625 11.3516 10.125 9.5 11.2031C7.625 12.2812 5.35156 12.2812 3.5 11.2031C1.625 10.125 0.5 8.15625 0.5 6ZM5 3.75H8C8.39844 3.75 8.75 4.10156 8.75 4.5V7.5C8.75 7.92188 8.39844 8.25 8 8.25H5C4.57812 8.25 4.25 7.92188 4.25 7.5V4.5C4.25 4.10156 4.57812 3.75 5 3.75Z" fill="#666666"/>
</g>
<defs>
<clipPath id="clip0_3035_1948">
<rect width="12" height="12" fill="white" transform="translate(0.5)"/>
</clipPath>
</defs>
</svg>
